<svg width="34" height="47" viewBox="0 0 34 47" fill="none" xmlns="http://www.w3.org/2000/svg">
<path d="M21.0096 1.00311C21.7154 1.26267 22.3749 1.63577 22.9626 2.10798C23.4442 2.48428 23.8616 2.9376 24.1982 3.44997C24.3478 3.34363 24.3036 3.17562 24.3583 3.04163C24.3752 2.99591 24.3404 2.92678 24.4121 2.90445C24.4837 2.88212 24.5111 2.95656 24.5406 3.00335C24.926 3.62011 25.1899 4.30612 25.318 5.02379C25.423 5.52541 25.4585 6.03934 25.4233 6.55082C25.4128 6.69225 25.456 6.71033 25.5781 6.64759C25.7134 6.56354 25.8286 6.45022 25.9152 6.31581C25.9963 6.79221 25.9373 7.25265 25.9057 7.70566C25.8468 8.60855 25.681 9.50107 25.4117 10.3641C25.0105 11.6767 24.3672 12.9009 23.5156 13.9722C22.9043 14.7507 22.1827 15.434 21.3741 16.0001C20.642 16.5041 19.8151 16.7636 18.9619 16.9455C18.2873 17.0873 17.5987 17.1505 16.9099 17.1337C15.6068 17.0966 14.3224 16.8116 13.124 16.2936C12.3902 16.0015 11.7022 15.6035 11.0815 15.1122C10.1704 14.3539 9.46961 13.3702 9.04743 12.257C8.67393 11.279 8.45393 10.2483 8.39538 9.20185C8.34441 8.46807 8.36204 7.73107 8.44805 7.00063C8.45174 6.93972 8.45174 6.87864 8.44805 6.81773C8.43014 6.81773 8.41013 6.80709 8.40697 6.81135C8.32586 6.91769 8.20366 7.02402 8.09095 6.96448C7.97824 6.90493 8.03091 6.73585 8.05093 6.62738C8.19103 5.86493 8.48492 5.19074 9.17699 4.76751C9.29813 4.69307 9.26231 4.59099 9.25389 4.48465C9.17649 3.78481 9.23118 3.0765 9.41505 2.39722C9.51302 2.0665 9.65628 1.75918 9.9744 1.57096C10.1145 1.48908 10.1851 1.48908 10.2009 1.68368C10.2272 2.03779 10.2672 2.39084 10.5043 2.6822C10.6096 3.07034 10.8466 3.2139 11.2058 3.09161C11.2422 3.08168 11.2791 3.07386 11.3164 3.06822C11.8467 2.97282 12.3854 2.93291 12.9239 2.94912C12.9832 2.95212 13.0425 2.94154 13.0972 2.91815C13.1519 2.89476 13.2007 2.85918 13.2399 2.81407C13.4894 2.56078 13.7902 2.36479 14.1216 2.23946C14.4529 2.11412 14.8072 2.06238 15.1602 2.08777C15.0248 2.18267 14.8979 2.28942 14.781 2.40679C14.5289 2.73036 14.3421 3.10067 14.2311 3.49676C14.1068 3.91148 14.1679 4.14968 14.5018 4.41766C14.9913 4.78988 15.5701 5.0237 16.1788 5.09504C16.4432 5.13438 16.479 5.17266 16.4 5.42681C16.3676 5.52036 16.3139 5.60488 16.2431 5.67352C15.9344 6.00807 15.5549 6.26797 15.1328 6.43384C15.0654 6.46043 14.9896 6.4902 15.0664 6.59867C15.3298 6.96767 15.373 7.38239 15.3108 7.82157C15.2856 8.00234 15.235 8.06615 15.0485 7.99277C14.704 7.84987 14.3324 7.7856 13.9604 7.80455C13.636 7.82476 13.4706 7.97257 13.5296 8.21608C13.7329 9.04872 14.1827 9.66761 15.038 9.90368C15.4267 10.01 15.8091 10.0685 16.1894 9.81011C16.5143 9.5866 16.8887 9.44711 17.2796 9.40389C17.8958 9.33477 18.4383 9.68782 18.7101 10.278C18.0243 10.4311 17.4155 10.7193 16.9488 11.2691C16.6455 11.6274 16.2262 11.7444 15.7849 11.8146C15.4783 11.8547 15.1689 11.8686 14.86 11.8561C15.1469 12.1104 15.4577 12.3358 15.788 12.5292C16.4401 12.9226 17.1269 13.213 17.8948 13.2619C18.6185 13.3176 19.3355 13.0891 19.8962 12.6238C20.3279 12.2734 20.6814 11.8349 20.9338 11.3371C21.0497 11.1085 21.1676 10.8809 21.2993 10.6247C21.4415 10.966 21.4236 11.285 21.4204 11.6381C21.6108 11.4598 21.7554 11.2376 21.8418 10.9905C22.2126 10.0557 22.2073 9.07637 22.1294 8.10017C22.122 7.99384 22.0599 7.85134 22.1568 7.80349C22.2537 7.75564 22.3527 7.87899 22.4306 7.95874C22.4612 7.99064 22.4802 8.03424 22.5118 8.06508C22.6297 8.18631 22.6371 8.36921 22.7551 8.51809C23.0121 7.92046 23.0363 7.31752 22.9573 6.71033C22.899 6.30211 22.806 5.89972 22.6792 5.50763C22.6592 5.44489 22.6245 5.36195 22.6719 5.31516C22.7193 5.26837 22.813 5.30559 22.8825 5.32898C23.0089 5.37045 23.1101 5.4736 23.2723 5.48636C23.1434 4.65227 22.6994 3.90104 22.0335 3.39042C21.5532 2.98846 20.978 2.75558 20.3945 2.5429C20.2596 2.49505 20.01 2.51525 20.0395 2.30577C20.069 2.09628 20.3039 2.11861 20.4703 2.09309C20.7063 2.06331 20.7389 2.00802 20.602 1.81342C20.5548 1.75383 20.4987 1.70215 20.4355 1.66029C20.1529 1.47392 19.8392 1.34063 19.5096 1.26683C19.4559 1.25195 19.3642 1.28066 19.3611 1.19878C19.3611 1.09988 19.4664 1.12115 19.518 1.10839C19.7105 1.06335 19.9072 1.03946 20.1048 1.03714C20.4071 1.03395 20.7115 1.06798 21.0096 1.00311Z" fill="#C75305"/>
<path d="M21.0096 1.00313C20.7094 1.068 20.4049 1.03397 20.1026 1.0361C19.9051 1.03841 19.7083 1.0623 19.5159 1.10734C19.4621 1.1201 19.3547 1.09884 19.3589 1.19773C19.3589 1.27961 19.4537 1.2509 19.5074 1.26579C19.8375 1.34187 20.1512 1.4777 20.4334 1.66669C20.4965 1.70855 20.5527 1.76023 20.5998 1.81981C20.7367 2.01441 20.7051 2.06971 20.4681 2.09949C20.3017 2.12075 20.0657 2.11331 20.0373 2.31216C20.0089 2.51102 20.2575 2.50145 20.3923 2.5493C20.9759 2.76198 21.551 2.99273 22.0377 3.38087C22.7036 3.89148 23.1476 4.64272 23.2764 5.47681C23.1142 5.46405 23.0131 5.3609 22.8867 5.31943C22.814 5.29603 22.7329 5.24606 22.676 5.30561C22.6191 5.36516 22.6634 5.43534 22.6834 5.49808C22.8101 5.89017 22.9032 6.29256 22.9615 6.70077C23.0405 7.31222 23.0163 7.91516 22.7592 8.50854C22.6413 8.35966 22.6339 8.17676 22.5159 8.05553C22.4843 8.02363 22.4653 7.98003 22.4348 7.94919C22.3568 7.86944 22.2663 7.73651 22.1609 7.79394C22.0556 7.85136 22.1262 7.98854 22.1335 8.09062C22.2115 9.07213 22.2167 10.0462 21.846 10.9809C21.7595 11.228 21.6149 11.4503 21.4246 11.6285C21.4246 11.2755 21.4457 10.9565 21.3035 10.6151C21.1718 10.8714 21.0538 11.099 20.9379 11.3276C20.6856 11.8254 20.332 12.2638 19.9004 12.6143C19.3397 13.0795 18.6226 13.3081 17.8989 13.2523C17.1268 13.2034 16.44 12.9131 15.7922 12.5196C15.4619 12.3262 15.1511 12.1008 14.8641 11.8465C15.173 11.859 15.4824 11.8452 15.789 11.805C16.2304 11.7349 16.6496 11.6179 16.953 11.2595C17.4196 10.7098 18.0285 10.4216 18.7142 10.2684C18.4467 9.67826 17.9 9.32522 17.2838 9.39434C16.8929 9.43756 16.5185 9.57705 16.1935 9.80055C15.8132 10.059 15.4309 10.0005 15.0422 9.89413C14.1868 9.65806 13.737 9.04342 13.5337 8.20653C13.4747 7.96302 13.639 7.8152 13.9645 7.795C14.3366 7.77605 14.7081 7.84032 15.0527 7.98322C15.2391 8.05659 15.2897 7.99279 15.315 7.81202C15.3771 7.37284 15.3339 6.9613 15.0706 6.58912C14.9937 6.48278 15.0706 6.45088 15.137 6.42429C15.559 6.25841 15.9385 5.99852 16.2472 5.66397C16.318 5.59532 16.3718 5.5108 16.4042 5.41726C16.4832 5.16311 16.4474 5.12483 16.183 5.08548C15.5743 5.01415 14.9954 4.78033 14.506 4.4081C14.1721 4.14013 14.111 3.90193 14.2353 3.48721C14.3463 3.09111 14.5331 2.72081 14.7851 2.39723C14.902 2.27987 15.0289 2.17312 15.1643 2.07822C14.8114 2.05283 14.4571 2.10457 14.1257 2.2299C13.7943 2.35524 13.4936 2.55123 13.244 2.80451C13.2049 2.84963 13.1561 2.88521 13.1014 2.9086C13.0466 2.93199 12.9874 2.94257 12.928 2.93956C12.3887 2.92461 11.8493 2.96595 11.3184 3.06292C11.2812 3.06856 11.2442 3.07638 11.2078 3.08631C10.8486 3.20435 10.6085 3.06504 10.5063 2.67691C11.2392 1.95518 12.0826 1.35735 13.0039 0.906363C13.9472 0.4396 14.9658 0.147159 16.0113 0.0428901C17.7725 -0.129379 19.4295 0.222603 21.0096 1.00313Z" fill="#044DA0"/>
<path d="M5.28473 33.1313H10.7086L10.7202 33.1685L9.57831 33.5716C9.15696 33.7173 8.74509 33.8661 8.32584 34.0033C8.16678 34.0554 8.15836 34.0979 8.24157 34.2521C9.0451 35.73 9.99824 37.1199 11.0857 38.3994C12.3358 39.8826 13.7902 41.1772 15.4046 42.2435C15.8727 42.5452 16.3577 42.8193 16.8572 43.0644C16.9071 43.0896 16.9621 43.1027 17.0178 43.1027C17.0736 43.1027 17.1286 43.0896 17.1785 43.0644C18.0359 42.7157 18.7965 42.2031 19.5191 41.6289C20.1763 41.0999 20.799 40.5287 21.3836 39.9189C22.5376 38.7209 23.6196 37.4543 24.6238 36.1258C25.1589 35.4187 25.6771 34.6998 26.1901 33.9778C26.2597 33.8799 26.2734 33.8353 26.1291 33.7917C25.497 33.6024 24.8745 33.3972 24.2467 33.1973C24.2108 33.1856 24.175 33.1781 24.1613 33.126H28.7172C28.4119 33.9285 28.0423 34.7045 27.6122 35.4463C27.1049 36.3594 26.5361 37.2362 25.9099 38.0708C25.4119 38.7553 24.8748 39.4101 24.3014 40.0317C23.6367 40.7335 22.9668 41.4332 22.2389 42.0702C21.9229 42.3488 21.6069 42.6402 21.2793 42.9007C20.7737 43.2963 20.2522 43.6716 19.735 44.0513C18.9366 44.63 18.102 45.156 17.2364 45.6262C17.1609 45.6748 17.0728 45.6998 16.9832 45.6981C16.8936 45.6964 16.8066 45.668 16.7329 45.6166C16.4896 45.4677 16.2294 45.3422 15.9955 45.1912C15.4109 44.8063 14.8231 44.4277 14.2532 44.0215C12.2525 42.5809 10.4508 40.8776 8.89572 38.9566C8.34375 38.2654 7.8139 37.5582 7.32302 36.8223C6.70962 35.9147 6.16285 34.9629 5.68712 33.9746C5.54913 33.6939 5.38269 33.4291 5.28473 33.1313Z" fill="#044DA0"/>
<path d="M32.2808 23.1429C31.3854 22.9961 30.49 22.8515 29.5925 22.6995C28.5392 22.5219 27.4942 22.3326 26.4429 22.1561C25.3917 21.9796 24.3362 21.8264 23.2828 21.6361C22.419 21.4798 21.5458 21.3755 20.6883 21.1799C20.56 21.1699 20.4335 21.1428 20.3123 21.0991H20.9443C23.3839 21.0991 25.8239 21.1008 28.2642 21.1044C28.4749 21.1044 28.5276 21.0555 28.5255 20.8428C28.5037 18.5033 28.4882 16.1639 28.4791 13.8244C28.4791 13.6734 28.4391 13.6288 28.2884 13.6298C27.6354 13.6383 26.9812 13.6298 26.3281 13.6373C26.1701 13.6373 26.1259 13.6032 26.128 13.4384C26.1438 12.5101 26.1448 11.5817 26.1511 10.6534C26.7142 10.6609 27.2771 10.6324 27.8366 10.5683C28.8446 10.462 29.8485 10.3227 30.8492 10.1632C31.535 10.0568 32.2186 9.94306 32.9023 9.82077C33.0855 9.7878 33.1203 9.84416 33.1129 10.0154C33.0971 10.9969 33.1193 11.9784 33.0877 12.9588C33.056 13.9924 33.0381 15.0271 32.9939 16.0597C32.9339 17.4825 32.8464 18.901 32.7042 20.3132C32.6165 21.2638 32.4752 22.2086 32.2808 23.1429Z" fill="#044DA0"/>
<path d="M7.84235 10.6523C7.84867 11.5807 7.84972 12.509 7.86447 13.4384C7.86447 13.6054 7.81917 13.6383 7.66432 13.6362C7.01755 13.6277 6.37182 13.6362 5.72505 13.6298C5.57757 13.6298 5.51437 13.6511 5.51437 13.8255C5.50454 16.1735 5.48909 18.5218 5.46802 20.8704C5.46802 21.0725 5.53122 21.1033 5.71135 21.1033C8.37325 21.0969 11.0341 21.1033 13.7002 21.1235C13.4253 21.1735 13.1503 21.2299 12.8743 21.2724C12.0815 21.4085 11.288 21.5432 10.4937 21.6765C9.71526 21.8052 8.93575 21.9274 8.15731 22.0582C7.29143 22.2039 6.4266 22.3581 5.56072 22.5049C4.87181 22.6208 4.1829 22.7261 3.49399 22.8409C2.90093 22.9387 2.30893 23.0419 1.71693 23.1429C1.59158 22.5697 1.49677 21.9902 1.41672 21.4085C1.27451 20.3855 1.18919 19.3583 1.11861 18.3247C1.04803 17.2911 1.01327 16.2617 0.971135 15.2292C0.900909 13.4746 0.871767 11.7196 0.883706 9.96432C0.883706 9.83565 0.911094 9.78354 1.05225 9.81119C1.42198 9.88137 1.79488 9.94518 2.16672 10.0026C3.13057 10.1515 4.0902 10.3163 5.05826 10.4343C5.98523 10.5513 6.908 10.681 7.84235 10.6523Z" fill="#044DA0"/>
<path d="M5.28469 33.1313C5.38266 33.4291 5.54909 33.6939 5.68182 33.9746C6.15687 34.9628 6.70293 35.9146 7.31561 36.8224C7.80649 37.5582 8.33634 38.2654 8.88831 38.9566C10.4444 40.8774 12.2472 42.5804 14.249 44.0204C14.8189 44.4288 15.4077 44.8073 15.9913 45.1902C16.2272 45.3454 16.4874 45.4709 16.7286 45.6155C16.8023 45.667 16.8894 45.6953 16.979 45.697C17.0685 45.6987 17.1566 45.6737 17.2322 45.6251C18.0977 45.155 18.9324 44.6289 19.7308 44.0502C20.248 43.6706 20.7694 43.2952 21.275 42.8996C21.6068 42.6391 21.9165 42.3477 22.2347 42.0691C22.9625 41.4311 23.6325 40.7324 24.2972 40.0306C24.8706 39.409 25.4076 38.7543 25.9057 38.0697C26.5319 37.2352 27.1006 36.3583 27.608 35.4453C28.0381 34.7034 28.4076 33.9274 28.713 33.125C28.7175 33.1226 28.7226 33.1214 28.7277 33.1214C28.7328 33.1214 28.7379 33.1226 28.7424 33.125C29.0311 33.1303 29.3197 33.1345 29.6073 33.142C29.6863 33.142 29.78 33.1111 29.8306 33.2111C28.5582 35.9521 26.8999 38.4929 24.9071 40.7548C24.3804 41.3545 23.8358 41.9447 23.2575 42.4966C22.1624 43.5533 20.9883 44.5231 19.7455 45.3975C18.9277 45.9748 18.0705 46.4933 17.1805 46.949C17.128 46.9823 17.0672 47 17.0051 47C16.9431 47 16.8823 46.9823 16.8298 46.949C15.5696 46.2435 14.3595 45.4505 13.2082 44.5755C11.8288 43.5148 10.5424 42.3361 9.36339 41.0525C8.45262 40.0672 7.6097 39.0202 6.84054 37.9187C5.95853 36.6725 5.17721 35.3568 4.50414 33.9842C4.37668 33.7215 4.22394 33.4663 4.16705 33.1728C4.52731 33.1058 4.89389 33.1824 5.2552 33.1303C5.25985 33.1281 5.26495 33.1271 5.27007 33.1272C5.2752 33.1274 5.2802 33.1288 5.28469 33.1313Z" fill="#C75305"/>
<path d="M7.84232 10.6523C6.90587 10.681 5.98311 10.5513 5.05718 10.4396C4.08912 10.3216 3.12949 10.1568 2.16565 10.0079C1.7938 9.95048 1.42091 9.88668 1.05117 9.8165C0.910019 9.78885 0.883684 9.84096 0.88263 9.96963C0.873501 11.7249 0.902646 13.4799 0.970063 15.2345C1.01009 16.267 1.04696 17.2996 1.11754 18.33C1.18811 19.3604 1.27343 20.3866 1.41564 21.4138C1.4957 21.9955 1.5905 22.575 1.71586 23.1482C1.51571 23.1854 1.31557 23.2237 1.11543 23.2545C0.97533 23.2779 0.893166 23.2545 0.85103 23.0759C0.696183 22.4092 0.596112 21.736 0.502361 21.0555C0.379115 20.1697 0.320126 19.2785 0.242176 18.3885C0.194774 17.8483 0.169492 17.3038 0.146318 16.7604C0.0304456 14.092 -0.0166051 11.4229 0.00516482 8.75311C0.00516482 8.71483 0.00516482 8.67654 0.00516482 8.61487C0.310646 8.71589 0.598217 8.82754 0.898431 8.90943C1.59867 9.08319 2.30849 9.21493 3.02416 9.30394C3.71307 9.39646 4.40093 9.49429 5.09089 9.57085C5.66288 9.63359 6.23697 9.66975 6.81106 9.71973C7.11233 9.74631 7.4136 9.78247 7.71592 9.80161C7.83284 9.80905 7.8497 9.86116 7.84654 9.96006C7.84233 10.1908 7.84232 10.4216 7.84232 10.6523Z" fill="#C75305"/>
<path d="M32.2808 23.1429C32.4744 22.2096 32.6151 21.2659 32.7022 20.3164C32.8444 18.9 32.9318 17.4814 32.9918 16.0629C33.0361 15.0303 33.054 13.9956 33.0856 12.962C33.1172 11.9816 33.0951 11.0001 33.1109 10.0186C33.1109 9.84735 33.0793 9.79099 32.9002 9.82396C32.2176 9.94625 31.5308 10.0568 30.8471 10.1664C29.8464 10.3259 28.8457 10.4684 27.8345 10.5715C27.275 10.6356 26.7121 10.664 26.149 10.6566C26.149 10.4875 26.149 10.3184 26.149 10.1504C26.149 9.81438 26.149 9.80588 26.4788 9.77717C27.1045 9.72293 27.7323 9.68997 28.358 9.62936C28.9837 9.56874 29.602 9.47623 30.2246 9.40923C30.9441 9.33267 31.6561 9.21676 32.3661 9.07958C32.9258 8.98895 33.4724 8.82931 33.9936 8.60425C33.9936 8.67975 33.9936 8.73611 33.9936 8.79247C34.0073 10.6864 34.0031 12.5813 33.9409 14.4742C33.903 15.6141 33.8598 16.7551 33.7787 17.894C33.7303 18.5788 33.6913 19.2669 33.6228 19.9506C33.5175 21.0002 33.4016 22.0487 33.1467 23.078C33.1024 23.2599 33.0213 23.278 32.8833 23.2556C32.6832 23.2184 32.4841 23.1801 32.2808 23.1429Z" fill="#C75305"/>
<path d="M29.8349 33.2164C29.7843 33.1164 29.6905 33.1494 29.6115 33.1473C29.324 33.1398 29.0353 33.1356 28.7467 33.1302C29.0575 33.1302 29.3671 33.1302 29.6779 33.1302C29.7348 33.1334 29.8443 33.0728 29.8349 33.2164Z" fill="#C75305"/>
<path d="M5.25312 33.1315C4.89181 33.1836 4.52523 33.107 4.16498 33.174C4.33247 33.0793 4.5126 33.1442 4.6864 33.1336C4.86021 33.123 5.06457 33.1315 5.25312 33.1315Z" fill="#C75305"/>
<path d="M10.066 27.4177C10.066 28.0388 10.0523 28.6598 10.0723 29.2797C10.0808 29.5466 9.95224 29.5488 9.75631 29.5541C9.56038 29.5594 9.46347 29.5084 9.46663 29.2755C9.47822 28.3089 9.46663 27.3412 9.47506 26.3745C9.47506 26.2618 9.39184 26.0789 9.58671 26.0555C9.78159 26.0321 9.95645 25.9917 10.0902 26.2352C10.4726 26.9318 10.8876 27.6091 11.2879 28.2918C11.3754 28.2918 11.3848 28.2153 11.4122 28.1674C11.7865 27.5294 12.1587 26.8882 12.5288 26.2437C12.591 26.1565 12.6786 26.0909 12.7794 26.056C12.8801 26.0211 12.9891 26.0188 13.0913 26.0491C13.1619 26.0779 13.145 26.1321 13.145 26.1821C13.145 27.2455 13.145 28.3124 13.145 29.3829C13.145 29.4998 13.1008 29.5424 12.986 29.552C12.5499 29.5881 12.5509 29.5913 12.5509 29.1521V27.2891L11.8589 28.4588C11.7535 28.6364 11.6482 28.815 11.5428 28.9905C11.407 29.2202 11.2005 29.2212 11.0625 28.9905C10.7465 28.4623 10.4305 27.9335 10.1145 27.4039L10.066 27.4177Z" fill="#3E3E3E"/>
<path d="M6.74367 26.0438C7.05968 26.0513 7.41467 26.0173 7.76544 26.1119C8.24579 26.2406 8.58603 26.5266 8.66503 27.0381C8.74614 27.5698 8.62185 28.0345 8.11938 28.3142C8.01404 28.3737 8.01931 28.4205 8.08251 28.5013C8.27423 28.7682 8.46068 29.0394 8.64713 29.3095C8.68505 29.3637 8.75246 29.4158 8.70717 29.4924C8.66187 29.569 8.58498 29.5339 8.52072 29.5445C8.23736 29.5881 8.01931 29.5137 7.89501 29.2255C7.85604 29.1362 7.76966 29.0681 7.72858 28.9799C7.55056 28.5907 7.26509 28.4535 6.84058 28.5024C6.48664 28.5428 6.48243 28.5098 6.48243 28.8693C6.48243 29.0383 6.48243 29.2074 6.48243 29.3765C6.48243 29.4967 6.43187 29.5328 6.31915 29.5424C5.86725 29.5775 5.86304 29.5764 5.86304 29.117C5.86304 28.1727 5.86304 27.2285 5.86304 26.2842C5.86304 26.0959 5.9136 26.0183 6.10742 26.0321C6.30124 26.046 6.50139 26.0438 6.74367 26.0438ZM6.48243 27.2933C6.48243 27.4698 6.48769 27.6464 6.48243 27.825C6.47716 27.9377 6.50033 27.9941 6.6299 27.9866C6.8943 27.9728 7.15659 27.9866 7.42415 27.9622C7.8455 27.9271 8.07725 27.6719 8.07409 27.2848C8.07093 26.8977 7.82759 26.6521 7.40624 26.6244C7.14184 26.6085 6.87955 26.6244 6.61094 26.6149C6.5056 26.6149 6.47927 26.6468 6.48243 26.7457C6.48664 26.9275 6.48243 27.1072 6.48243 27.2944V27.2933Z" fill="#3E3E3E"/>
<path d="M14.742 27.6442C15.2286 27.1912 15.7595 26.6989 16.2883 26.2033C16.4242 26.0768 16.8245 25.9758 16.9815 26.0502C17.1142 26.114 17.0478 26.1916 16.9815 26.2629C16.5938 26.6733 16.2136 27.0913 15.8164 27.4932C15.7016 27.6091 15.7111 27.6697 15.8164 27.7856C16.2378 28.2876 16.6518 28.7991 17.0657 29.3084C17.1047 29.3573 17.1827 29.3956 17.1458 29.4818C17.1089 29.5679 17.0341 29.5381 16.9688 29.5487C16.6528 29.5987 16.4316 29.4966 16.2367 29.2297C15.9871 28.8831 15.6827 28.5789 15.4119 28.2482C15.3171 28.1323 15.2771 28.1217 15.1412 28.2216C14.763 28.4971 14.6998 28.8597 14.7441 29.285C14.7525 29.3722 14.801 29.5147 14.6609 29.5349C14.4988 29.5776 14.3276 29.5698 14.17 29.5126C14.111 29.4839 14.131 29.4063 14.131 29.3414C14.131 28.3142 14.131 27.2859 14.131 26.2576C14.131 26.1002 14.1795 26.0279 14.3417 26.0449C14.4097 26.0507 14.4781 26.0507 14.5461 26.0449C14.7062 26.0332 14.7567 26.1076 14.7567 26.265C14.7378 26.7605 14.742 27.2571 14.742 27.6442Z" fill="#3E3E3E"/>
<path d="M18.2424 28.9937C18.8913 28.9937 19.4759 29.0043 20.0595 28.9884C20.2933 28.9809 20.3112 29.0841 20.3155 29.2755C20.3197 29.4669 20.2723 29.553 20.051 29.553C19.2694 29.5392 18.4868 29.553 17.7041 29.5445C17.5988 29.5445 17.4397 29.6094 17.4039 29.4679C17.3762 29.3924 17.3677 29.3111 17.3791 29.2315C17.3905 29.1518 17.4215 29.0763 17.4692 29.0117C17.8716 28.5215 18.2645 28.0239 18.6595 27.5294C18.8923 27.2391 19.1241 26.9477 19.3906 26.6138H18.4488C18.175 26.6138 17.9021 26.6138 17.6283 26.6138C17.486 26.6138 17.4102 26.5755 17.425 26.4192C17.4307 26.3506 17.4307 26.2815 17.425 26.2129C17.4176 26.0991 17.4576 26.0406 17.5787 26.0417C18.4141 26.0417 19.2494 26.0417 20.0858 26.0417C20.2649 26.0417 20.3197 26.3607 20.168 26.5574C19.8741 26.9371 19.5718 27.3114 19.2726 27.6878C18.9439 28.1111 18.6132 28.5268 18.2424 28.9937Z" fill="#3E3E3E"/>
<path d="M31.1842 29.553C31.0104 29.6104 30.8966 29.5062 30.8556 29.3169C30.7439 28.8107 30.4511 28.613 29.936 28.7002C29.679 28.7289 29.4197 28.7289 29.1628 28.7002C28.9879 28.6906 28.8815 28.7299 28.8268 28.9128C28.7709 29.0711 28.7044 29.2253 28.6277 29.3743C28.5602 29.5222 28.1199 29.6274 28.002 29.52C27.9145 29.4403 27.9904 29.3637 28.022 29.2925C28.4377 28.3588 28.8559 27.4259 29.2765 26.4936C29.2923 26.4585 29.306 26.4234 29.3218 26.3873C29.4809 26.0311 29.5831 25.9789 29.9602 26.0396C30.0476 26.0534 30.0655 26.1087 30.0971 26.1704C30.5697 27.2203 31.0434 28.272 31.5181 29.3254C31.5908 29.486 31.5518 29.5551 31.377 29.5487C31.3243 29.5466 31.2706 29.553 31.1842 29.553ZM30.3626 28.1865L29.7527 26.7882C29.542 27.2816 29.345 27.724 29.147 28.1802L30.3626 28.1865Z" fill="#3E3E3E"/>
<path d="M3.869 29.5786C3.44625 29.5977 3.02776 29.4864 2.6692 29.2595C2.59757 29.2149 2.47748 29.1745 2.5133 29.0628C2.54131 28.9204 2.61146 28.7899 2.71449 28.6885C2.78191 28.6353 2.83985 28.7023 2.89567 28.7406C3.25773 28.9888 3.70103 29.0857 4.13234 29.0107C4.26192 28.9984 4.38379 28.943 4.47891 28.8533C4.51741 28.8198 4.54781 28.7777 4.56778 28.7305C4.58774 28.6832 4.59675 28.632 4.5941 28.5807C4.59146 28.5294 4.57724 28.4794 4.55253 28.4345C4.52782 28.3896 4.49327 28.351 4.45152 28.3216C4.28403 28.1887 4.07546 28.1632 3.88059 28.109C3.65516 28.0409 3.42342 27.993 3.20431 27.9101C2.84195 27.775 2.60073 27.5262 2.58282 27.1147C2.56491 26.7031 2.7166 26.3863 3.08318 26.2076C3.7152 25.9003 4.34723 25.9641 4.96451 26.2746C5.11093 26.348 5.05194 26.4394 5.01192 26.5383C4.88235 26.851 4.88235 26.8573 4.59056 26.7148C4.3046 26.5859 3.98845 26.541 3.67834 26.5851C3.60217 26.5905 3.52783 26.6111 3.45965 26.6458C3.39146 26.6805 3.33081 26.7285 3.28121 26.7872C3.24873 26.8223 3.22408 26.8641 3.20893 26.9097C3.19378 26.9553 3.18847 27.0037 3.19336 27.0515C3.19824 27.0994 3.21322 27.1456 3.23728 27.1871C3.26133 27.2287 3.29391 27.2645 3.33283 27.2923C3.49172 27.3985 3.67131 27.4692 3.85952 27.4996C4.11907 27.555 4.37404 27.6303 4.62216 27.7251C4.9603 27.8718 5.18994 28.1089 5.20784 28.4992C5.22396 28.6802 5.18639 28.862 5.09993 29.0215C5.01346 29.1809 4.882 29.3108 4.72224 29.3946C4.46157 29.5383 4.16508 29.6022 3.869 29.5786Z" fill="#3E3E3E"/>
<path d="M22.5233 27.7973C22.5233 27.2837 22.5233 26.7701 22.5233 26.2565C22.5233 26.0959 22.5759 26.0289 22.7339 26.0438C22.7868 26.0502 22.8402 26.0502 22.893 26.0438C23.0752 26.0257 23.1469 26.0906 23.1447 26.2905C23.1342 27.1178 23.1447 27.9452 23.1353 28.7735C23.1353 28.9586 23.1879 29.0022 23.3628 28.9979C23.8105 28.9851 24.2582 29.0053 24.7059 28.9883C24.9218 28.9798 24.9418 29.0808 24.9292 29.2499C24.9186 29.3977 24.9713 29.5551 24.7185 29.5498C24.0591 29.5339 23.3976 29.5402 22.7381 29.5498C22.5801 29.5498 22.5275 29.4998 22.5275 29.3371C22.5275 28.8246 22.5233 28.311 22.5233 27.7973Z" fill="#3E3E3E"/>
<path d="M25.4896 27.7942C25.4896 27.2954 25.4991 26.7967 25.4896 26.299C25.4843 26.0917 25.557 26.0194 25.7519 26.046C25.7974 26.0513 25.8433 26.0513 25.8888 26.046C26.0553 26.03 26.1142 26.1002 26.1132 26.2714C26.1058 27.0923 26.1195 27.9122 26.1037 28.7321C26.0984 28.9639 26.1701 29.0075 26.3807 29.0001C26.82 28.983 27.2614 29.0001 27.7017 28.9905C27.8976 28.9841 27.9124 29.0851 27.8966 29.2319C27.8808 29.3786 27.9735 29.5509 27.7038 29.5509C27.036 29.5413 26.3681 29.5434 25.7024 29.5509C25.5412 29.5509 25.4917 29.4924 25.4917 29.3382C25.4938 28.8203 25.4896 28.3067 25.4896 27.7942Z" fill="#3E3E3E"/>
<path d="M11.2817 36.38C11.2817 36.1673 11.2817 35.9546 11.2817 35.7356C11.2817 35.6654 11.2364 35.558 11.3301 35.5346C11.4239 35.5112 11.5882 35.4676 11.6514 35.5558C11.7146 35.6441 11.7399 35.6101 11.7999 35.5867C12.1223 35.4655 12.4383 35.4421 12.7237 35.6781C12.7327 35.6894 12.7441 35.6986 12.7571 35.7048C12.77 35.7111 12.7842 35.7144 12.7985 35.7144C12.8129 35.7144 12.8271 35.7111 12.84 35.7048C12.853 35.6986 12.8643 35.6894 12.8733 35.6781C13.0451 35.5472 13.2595 35.4864 13.4737 35.508C13.9046 35.5208 14.1342 35.7313 14.1595 36.1694C14.1785 36.4884 14.1595 36.8138 14.17 37.136C14.1753 37.3306 14.0384 37.2541 13.9499 37.2658C13.8445 37.2807 13.7613 37.2743 13.7698 37.119C13.7824 36.8585 13.7761 36.5969 13.7698 36.3364C13.7645 36.0174 13.6275 35.8419 13.3842 35.8366C13.1409 35.8313 12.9439 36.0205 12.927 36.3119C12.9118 36.58 12.9118 36.8488 12.927 37.1169C12.9376 37.2998 12.828 37.2658 12.7258 37.2668C12.6237 37.2679 12.5152 37.2913 12.5247 37.1148C12.5383 36.8617 12.5247 36.6086 12.5247 36.3555C12.5247 36.012 12.3919 35.8419 12.137 35.8376C11.8821 35.8334 11.6893 36.0407 11.6809 36.3608C11.6746 36.6139 11.6693 36.8681 11.6809 37.1211C11.6914 37.3051 11.5756 37.2668 11.4765 37.2668C11.3775 37.2668 11.2606 37.303 11.2659 37.1201C11.2911 36.8723 11.2817 36.6256 11.2817 36.38Z" fill="#3E3E3E"/>
<path d="M21.5426 27.7963C21.5426 28.3014 21.5353 28.8076 21.5426 29.3127C21.5426 29.4913 21.4973 29.5753 21.313 29.5509C21.2753 29.5456 21.237 29.5456 21.1992 29.5509C20.9833 29.5828 20.9117 29.4977 20.9148 29.2723C20.9254 28.2844 20.9285 27.2954 20.9148 26.3076C20.9148 26.0353 21.0465 26.0396 21.2382 26.0396C21.4299 26.0396 21.5542 26.0449 21.5469 26.3022C21.5289 26.7999 21.5426 27.2976 21.5426 27.7963Z" fill="#3E3E3E"/>
<path d="M22.6581 36.6278V37.018C22.6581 37.2658 22.5717 37.3562 22.3558 37.2488C22.2199 37.1807 22.1451 37.2424 22.0397 37.2594C21.8678 37.2919 21.6913 37.2919 21.5194 37.2594C21.4012 37.2443 21.293 37.1848 21.2162 37.0928C21.1395 37.0008 21.1 36.883 21.1054 36.7628C21.0993 36.7032 21.105 36.6431 21.1221 36.5857C21.1393 36.5284 21.1675 36.4751 21.2053 36.4289C21.243 36.3827 21.2895 36.3445 21.3419 36.3166C21.3944 36.2886 21.4519 36.2715 21.5109 36.2662C21.714 36.2415 21.9186 36.2333 22.123 36.2417C22.262 36.2417 22.2746 36.1822 22.2346 36.0705C22.2127 36.0005 22.1694 35.9393 22.1109 35.8956C22.0525 35.8518 21.9819 35.8278 21.9091 35.827C21.7492 35.8096 21.5883 35.8491 21.4541 35.9387C21.335 36.0174 21.276 35.994 21.2034 35.8738C21.1307 35.7536 21.1781 35.6813 21.2897 35.6292C21.5941 35.4827 21.9418 35.4569 22.2641 35.5569C22.3682 35.5851 22.4605 35.6463 22.5274 35.7316C22.5944 35.8168 22.6324 35.9214 22.636 36.0301C22.6518 36.2269 22.636 36.4268 22.636 36.6256L22.6581 36.6278ZM22.0124 36.4927C21.9133 36.5044 21.808 36.5097 21.7058 36.531C21.6522 36.5356 21.602 36.5596 21.5646 36.5988C21.5272 36.6379 21.5051 36.6894 21.5025 36.7437C21.5023 36.7979 21.5207 36.8505 21.5548 36.8924C21.5888 36.9343 21.6363 36.963 21.689 36.9734C21.7682 36.9999 21.853 37.0041 21.9344 36.9853C22.0157 36.9666 22.0904 36.9257 22.1503 36.867C22.1968 36.8332 22.2318 36.7858 22.2507 36.7312C22.2695 36.6766 22.2713 36.6175 22.2557 36.5618C22.2178 36.4459 22.0987 36.5235 22.0124 36.4927Z" fill="#3E3E3E"/>
<path d="M14.5587 36.3927C14.5587 35.8398 14.9158 35.5006 15.492 35.5037C16.0356 35.5037 16.3895 35.8525 16.3937 36.3821C16.3937 36.9319 16.0335 37.287 15.4688 37.2849C14.9042 37.2828 14.5598 36.9361 14.5587 36.3927ZM15.4709 35.8281C15.4005 35.8304 15.3312 35.8469 15.2671 35.8767C15.2031 35.9066 15.1457 35.9491 15.0982 36.0017C15.0508 36.0544 15.0143 36.1161 14.9909 36.1833C14.9675 36.2505 14.9578 36.3217 14.9622 36.3927C14.9589 36.4654 14.97 36.5379 14.9948 36.6061C15.0197 36.6744 15.0577 36.737 15.1067 36.7902C15.1557 36.8435 15.2148 36.8863 15.2804 36.9163C15.346 36.9463 15.4169 36.9628 15.4889 36.9648C15.63 36.9492 15.7602 36.8808 15.854 36.7732C15.9477 36.6656 15.9982 36.5265 15.9955 36.3832C15.9954 36.2402 15.9409 36.1028 15.8433 35.9993C15.7457 35.8958 15.6124 35.8341 15.4709 35.827V35.8281Z" fill="#3E3E3E"/>
<path d="M17.5451 35.827H16.8246C16.7192 35.827 16.6139 35.8557 16.6139 35.6771C16.6139 35.4984 16.7013 35.5165 16.8151 35.5176C17.1637 35.5176 17.5124 35.5176 17.8611 35.5176C17.9296 35.5176 18.0307 35.4676 18.0623 35.5622C18.0798 35.6089 18.0847 35.6594 18.0763 35.7086C18.068 35.7578 18.0468 35.8038 18.0149 35.8419C17.7642 36.1492 17.5187 36.4608 17.2722 36.7713C17.2354 36.817 17.1996 36.8649 17.1448 36.9361C17.4039 36.9654 17.6651 36.9721 17.9253 36.9563C18.0486 36.9563 18.0992 36.984 18.0992 37.1212C18.0992 37.2583 18.0296 37.2615 17.9296 37.2605C17.5651 37.2605 17.2006 37.2605 16.8372 37.2605C16.7614 37.2605 16.6507 37.3126 16.6139 37.219C16.5958 37.1685 16.5919 37.114 16.6027 37.0614C16.6135 37.0088 16.6385 36.9603 16.675 36.9212C16.9278 36.615 17.1711 36.3024 17.4176 35.9918C17.4513 35.9514 17.4829 35.91 17.5451 35.827Z" fill="#3E3E3E"/>
<path d="M19.1599 37.5019C19.0082 37.5231 19.0082 37.454 19.0471 37.3423C19.2999 36.6235 19.5538 35.9046 19.7961 35.1815C19.8519 35.0156 19.972 35.0433 20.07 35.0677C20.1995 35.1007 20.0931 35.1985 20.0752 35.2507C19.8382 35.9589 19.5907 36.6639 19.3484 37.37C19.3147 37.47 19.2662 37.5284 19.1599 37.5019Z" fill="#3E3E3E"/>
<path d="M20.0331 37.5019C19.9046 37.5221 19.8646 37.4795 19.9099 37.3509C20.1638 36.632 20.4187 35.9142 20.6599 35.1911C20.7147 35.0274 20.8253 35.0401 20.9275 35.0656C21.0718 35.1029 20.958 35.2081 20.939 35.2634C20.7031 35.9642 20.4576 36.6618 20.2175 37.3604C20.1848 37.4551 20.1501 37.5284 20.0331 37.5019Z" fill="#3E3E3E"/>
<path d="M18.61 36.1677C18.4626 36.1677 18.3551 36.0996 18.3551 35.9242C18.3551 35.7487 18.4499 35.6817 18.6185 35.6817C18.787 35.6817 18.8649 35.7445 18.8702 35.9072C18.8755 36.0699 18.787 36.1613 18.61 36.1677Z" fill="#3E3E3E"/>
<path d="M18.8762 37.0489C18.8799 37.0831 18.8758 37.1177 18.8643 37.1501C18.8527 37.1824 18.8339 37.2117 18.8094 37.2356C18.7849 37.2595 18.7553 37.2775 18.7229 37.2881C18.6904 37.2986 18.656 37.3016 18.6223 37.2967C18.4622 37.2967 18.3589 37.2244 18.36 37.05C18.36 36.8936 18.4432 36.8171 18.6033 36.8117C18.7635 36.8064 18.8688 36.8628 18.8762 37.0489Z" fill="#3E3E3E"/>
</svg>
