<svg width="146" height="123" viewBox="0 0 146 123" fill="none" xmlns="http://www.w3.org/2000/svg">
<path fill-rule="evenodd" clip-rule="evenodd" d="M105.938 13.7401C113.021 14.1027 118.65 17.6816 124.28 21.7003C142.743 34.8974 148.918 55.3734 136.266 75.4946C116.593 106.698 70.7677 127.12 35.2339 117.695C27.3644 115.618 16.7103 113.787 8.90132 103.644C1.63717 94.2122 1.93984 83.0001 5.26924 72.6199C8.65918 61.9771 15.1969 52.1818 20.4029 45.8854C43.1639 18.4142 88.7464 -6.55342 129.971 6.6093C130.818 6.86291 131.666 6.42676 131.908 5.63519C132.15 4.84362 131.726 3.99482 130.939 3.74121C88.5041 -9.80525 41.4687 15.6985 18.0418 43.9703C11.5646 51.8216 3.09023 64.9277 0.668849 78.488C-0.965585 87.7561 0.184336 97.2302 6.47993 105.472C14.7732 116.277 26.0933 118.393 34.447 120.605C71.131 130.339 118.529 109.321 138.808 77.094C152.429 55.4674 145.891 33.4384 126.036 19.2533C119.982 14.8931 113.808 11.125 106.12 10.7322C105.272 10.6894 104.546 11.3286 104.546 12.1587C104.485 12.9888 105.151 13.6973 105.938 13.7401Z" fill="black"/>
<path d="M47.8754 79.3C47.4754 79.2333 47.0087 78.95 46.4754 78.45C45.9421 77.95 45.5754 77.4667 45.3754 77C45.1421 75.9 46.3087 72.9333 48.8754 68.1C49.6087 66.9333 49.9754 66.2333 49.9754 66C49.9754 65.8667 49.8754 65.7833 49.6754 65.75C49.5087 65.7167 49.2754 65.7 48.9754 65.7C48.8421 65.6667 48.4754 65.5833 47.8754 65.45C47.2754 65.3167 46.9254 65.1833 46.8254 65.05C46.1921 64.7167 45.8754 64.3667 45.8754 64C45.8754 63.8 45.9921 63.6833 46.2254 63.65C46.4254 63.6167 46.5921 63.5167 46.7254 63.35C46.8587 63.1833 46.9254 63.0167 46.9254 62.85C46.9254 62.5833 46.7754 62.4 46.4754 62.3L47.0254 62.4C47.3587 62.4 47.8921 62.4333 48.6254 62.5L49.9254 62.55C50.5254 62.55 50.9587 62.5667 51.2254 62.6C51.3254 62.6333 51.4587 62.65 51.6254 62.65C51.8587 62.65 52.0421 62.6 52.1754 62.5C52.3087 62.3667 52.4754 62.1833 52.6754 61.95C52.8754 61.6833 53.0254 61.4833 53.1254 61.35C53.1921 61.2167 53.4587 60.8 53.9254 60.1C54.5921 59.2333 55.1087 58.45 55.4754 57.75C56.8087 55.8833 57.4754 54.6833 57.4754 54.15C57.4754 53.75 57.1921 53.5833 56.6254 53.65C55.4921 53.8167 53.9421 54.2667 51.9754 55C50.8421 55.4667 49.9587 55.7 49.3254 55.7C48.9921 55.7 48.7087 55.6333 48.4754 55.5C48.2754 55.4667 48.1087 55.2167 47.9754 54.75C47.8421 54.25 47.7754 53.75 47.7754 53.25C47.7754 52.95 47.7921 52.75 47.8254 52.65C47.9587 52.05 50.1421 51.2167 54.3754 50.15C55.4421 49.9833 56.5587 49.9 57.7254 49.9C58.5921 49.9 59.3087 49.9667 59.8754 50.1C60.4754 50.2 60.8421 50.35 60.9754 50.55C61.0087 50.5833 61.0587 50.6333 61.1254 50.7C61.1921 50.7333 61.2421 50.7 61.2754 50.6C61.3754 50.6333 61.4754 50.7833 61.5754 51.05C61.7087 51.2833 61.8421 51.5333 61.9754 51.8C62.0421 51.9333 62.1754 52.1833 62.3754 52.55C62.5754 52.9167 62.6754 53.2333 62.6754 53.5C62.6754 53.6333 62.6421 53.8667 62.5754 54.2C62.4754 54.5333 62.3087 54.8833 62.0754 55.25C61.8421 55.6167 61.6587 55.8667 61.5254 56C61.3921 56.1333 61.2754 56.2833 61.1754 56.45C61.1087 56.5833 61.0587 56.6667 61.0254 56.7C60.9921 56.8 60.8754 56.9333 60.6754 57.1C60.5087 57.2333 60.3587 57.3833 60.2254 57.55C60.1921 57.65 60.1087 57.8 59.9754 58C59.8754 58.1667 59.8087 58.3 59.7754 58.4L57.1754 62.35C56.7087 62.7833 56.4754 63.1 56.4754 63.3C56.4754 63.5 56.6921 63.7 57.1254 63.9C58.2921 64.4333 59.0087 65.1 59.2754 65.9V66.15C59.2754 66.75 59.1421 67.1167 58.8754 67.25C58.7087 67.4833 58.4254 67.65 58.0254 67.75C57.6587 67.85 57.4254 67.8333 57.3254 67.7C57.1921 67.4333 56.8087 67.1833 56.1754 66.95C55.5754 66.6833 55.1754 66.55 54.9754 66.55C54.8087 66.65 54.5254 66.9667 54.1254 67.5C53.6921 68.1333 53.1421 69.1 52.4754 70.4L51.2754 72.5C51.2421 72.6 51.1421 72.7667 50.9754 73C50.8421 73.2333 50.7421 73.4333 50.6754 73.6C50.5421 73.8333 50.4254 74.1833 50.3254 74.65C50.2254 75.1167 50.1754 75.5333 50.1754 75.9C50.1754 76.2333 50.2254 76.4 50.3254 76.4C50.3921 76.3667 50.4754 76.35 50.5754 76.35C50.8754 76.35 51.0754 76.5833 51.1754 77.05C51.3421 77.2833 51.2254 77.6 50.8254 78C50.4254 78.3667 49.9254 78.6833 49.3254 78.95C48.7254 79.25 48.2421 79.3667 47.8754 79.3ZM66.8898 77.2C66.6565 77.0333 66.4398 76.85 66.2398 76.65C66.0732 76.4167 65.9898 76.2333 65.9898 76.1C65.9232 75.9667 65.8565 75.8833 65.7898 75.85C65.7232 75.8167 65.6398 75.8 65.5398 75.8C65.4065 75.8667 65.2732 75.5333 65.1398 74.8C65.0065 74.0333 64.9732 73.5167 65.0398 73.25C65.1398 73.05 65.3565 72.8833 65.6898 72.75C66.0565 72.5833 66.4065 72.5 66.7398 72.5C67.2732 72.5 67.5565 72.6333 67.5898 72.9C67.6565 73.1667 67.8898 73.3833 68.2898 73.55C68.7232 73.6833 69.2565 73.75 69.8898 73.75C72.6565 73.75 74.9065 72.6167 76.6398 70.35C76.9065 69.7833 77.1398 69.05 77.3398 68.15C77.5732 67.2167 77.6898 66.5 77.6898 66C77.6898 65.7 77.6398 65.55 77.5398 65.55C77.5398 65.4833 77.5065 65.35 77.4398 65.15C77.4065 64.95 77.3398 64.7167 77.2398 64.45C77.0732 63.9833 76.6898 63.4833 76.0898 62.95C75.4898 62.4167 74.9065 62.0333 74.3398 61.8L73.8398 61.75C73.2398 61.75 72.3065 61.8333 71.0398 62L70.5398 62.05C70.3065 62.05 70.1565 62.0333 70.0898 62C70.0232 61.9667 69.9898 61.9333 69.9898 61.9C69.7232 61.8333 69.2565 61.5167 68.5898 60.95C67.9565 60.35 67.6398 59.9333 67.6398 59.7C67.7398 59.2 68.3065 58.1667 69.3398 56.6C70.3732 55.0333 71.2565 53.8833 71.9898 53.15C72.9232 52.15 74.0232 51.3667 75.2898 50.8C76.5898 50.2333 77.9065 49.95 79.2398 49.95C80.4065 49.95 81.2565 50.05 81.7898 50.25C82.3232 50.45 82.8065 50.85 83.2398 51.45C83.4398 51.85 83.5398 52.25 83.5398 52.65C83.5398 53.0833 83.4398 53.4667 83.2398 53.8C83.0398 54.1 82.7898 54.25 82.4898 54.25C82.2898 54.25 82.1398 54.2167 82.0398 54.15C81.6732 53.9167 81.1565 53.8 80.4898 53.8C79.7232 53.8 78.7565 53.9667 77.5898 54.3C77.3565 54.4 77.0065 54.5333 76.5398 54.7C76.0732 54.8667 75.7232 55.0333 75.4898 55.2C75.2565 55.3667 75.0898 55.5667 74.9898 55.8C74.9232 55.8667 74.8398 55.9667 74.7398 56.1C74.6398 56.2 74.5398 56.2333 74.4398 56.2C74.4065 56.2333 74.3398 56.3167 74.2398 56.45C74.1732 56.55 74.1398 56.65 74.1398 56.75C74.0398 56.85 73.9565 56.95 73.8898 57.05C73.8232 57.15 73.7565 57.2167 73.6898 57.25C73.6565 57.25 73.6065 57.2 73.5398 57.1L73.4898 57.6C73.4565 57.8333 73.5232 58 73.6898 58.1C73.8565 58.1667 74.2732 58.2333 74.9398 58.3C75.8732 58.4333 76.5398 58.5667 76.9398 58.7C77.3398 58.8333 77.9232 59.1333 78.6898 59.6C79.6898 60.2 80.4232 61.1333 80.8898 62.4C81.3565 63.6667 81.5898 65.0833 81.5898 66.65C81.5898 67.45 81.5398 68.2333 81.4398 69C81.3398 69.8333 81.2232 70.4333 81.0898 70.8C80.9898 71.1667 80.7232 71.6833 80.2898 72.35C79.1565 73.95 77.5398 75.2667 75.4398 76.3C73.3732 77.3333 71.4232 77.85 69.5898 77.85C68.4565 77.85 67.5565 77.6333 66.8898 77.2ZM92.5195 63.4C92.1862 63.4 91.9029 63.35 91.6695 63.25C91.4695 63.1167 91.2195 62.9 90.9195 62.6C90.3529 62.0667 89.9029 61.4833 89.5695 60.85C89.2695 60.2167 89.1695 59.6667 89.2695 59.2C89.3362 59 89.3529 58.8167 89.3195 58.65C89.3195 58.4833 89.3195 58.3667 89.3195 58.3C89.1862 58.1667 89.1529 58.0667 89.2195 58C89.2862 57.9333 89.3362 57.8667 89.3695 57.8C89.5362 57.8 89.5862 57.6333 89.5195 57.3C89.4529 57.1 89.5695 56.6333 89.8695 55.9C90.1695 55.1333 90.5195 54.4167 90.9195 53.75C92.3529 51.2167 93.4362 49.6667 94.1695 49.1C95.3362 48.1 96.6029 47.4667 97.9695 47.2C98.5695 47.0333 98.9529 46.95 99.1195 46.95C99.3195 46.95 99.4862 47 99.6195 47.1C99.7862 47.2 99.9862 47.3833 100.22 47.65C100.886 47.9167 101.503 48.3833 102.07 49.05C102.636 49.7167 102.953 50.4 103.02 51.1C103.053 51.3 103.07 51.6167 103.07 52.05C103.07 53.7833 102.353 55.7167 100.92 57.85C100.186 58.85 99.5195 59.65 98.9195 60.25C98.3529 60.85 97.6862 61.3833 96.9195 61.85C96.3195 62.25 95.5862 62.6 94.7195 62.9C93.8529 63.2 93.1195 63.3667 92.5195 63.4ZM87.0195 82.55C86.4529 82.4833 85.9862 82.2833 85.6195 81.95C85.2529 81.6167 85.0695 81.15 85.0695 80.55C85.0695 79.5833 85.5862 78.3667 86.6195 76.9C87.2862 76.1667 87.6695 75.6667 87.7695 75.4C88.0695 74.9667 89.2529 73.5667 91.3195 71.2C93.4195 68.8333 94.9029 67.15 95.7695 66.15H95.8695C96.0029 66.15 96.1362 66.0833 96.2695 65.95C96.4029 65.7833 96.5029 65.6 96.5695 65.4C96.6695 65.1333 96.8195 64.9 97.0195 64.7C97.2529 64.5 97.4529 64.3833 97.6195 64.35C97.7195 64.1833 97.8362 64.0333 97.9695 63.9C98.1029 63.7333 98.1862 63.6 98.2195 63.5C98.2195 63.4333 98.2862 63.35 98.4195 63.25C98.5529 63.1167 98.6362 63 98.6695 62.9C99.5029 62.2 101.82 59.8 105.62 55.7C109.453 51.5667 111.453 49.3333 111.62 49C111.72 48.7 111.92 48.55 112.22 48.55C112.386 48.55 112.52 48.5667 112.62 48.6C112.753 48.5333 112.886 48.5 113.02 48.5C113.153 48.5 113.286 48.5333 113.42 48.6C113.486 48.7 113.653 48.9 113.92 49.2C114.186 49.5 114.386 49.7833 114.52 50.05C114.72 50.35 114.82 50.6667 114.82 51C114.82 51.3 114.753 51.5667 114.62 51.8C114.453 52.2333 114.236 52.5833 113.97 52.85C113.736 53.1167 113.153 53.6667 112.22 54.5C111.986 54.7333 111.753 54.95 111.52 55.15C111.286 55.35 111.053 55.55 110.82 55.75C109.953 56.6167 108.77 57.8333 107.27 59.4C105.803 60.9667 105.053 61.8 105.02 61.9C104.686 62.1667 104.336 62.5333 103.97 63C103.37 63.5667 102.62 64.2667 101.72 65.1C100.853 65.9333 100.403 66.4 100.37 66.5C100.336 66.5333 100.27 66.6167 100.17 66.75C100.103 66.8833 99.9695 66.9833 99.7695 67.05C99.7029 67.0167 99.6362 67.05 99.5695 67.15C99.5029 67.25 99.4529 67.3167 99.4195 67.35C99.4195 67.65 98.8695 68.3167 97.7695 69.35C95.3362 72.2833 93.3362 74.7167 91.7695 76.65C90.2362 78.5833 89.3362 79.8667 89.0695 80.5C88.8362 81.0667 88.5029 81.5333 88.0695 81.9C87.6695 82.2667 87.3195 82.4833 87.0195 82.55ZM96.6695 57.6C97.2029 57 97.6195 56.45 97.9195 55.95C98.2529 55.4167 98.5362 54.75 98.7695 53.95C98.9029 53.4833 98.9695 53.0167 98.9695 52.55C98.9695 51.9167 98.8862 51.55 98.7195 51.45C98.5195 51.35 98.3029 51.3 98.0695 51.3C97.5695 51.3 97.0862 51.5333 96.6195 52C95.9862 52.5 95.4362 53.1167 94.9695 53.85C94.5029 54.5833 93.9529 55.6333 93.3195 57C93.1195 57.5 93.0195 57.9333 93.0195 58.3C93.0195 59.0667 93.3195 59.45 93.9195 59.45C94.6195 59.45 95.5362 58.8333 96.6695 57.6ZM99.8195 82.05C99.4862 82.05 99.2029 81.9833 98.9695 81.85C98.7695 81.75 98.5195 81.55 98.2195 81.25C97.6529 80.7167 97.2029 80.1167 96.8695 79.45C96.5695 78.8167 96.4695 78.2667 96.5695 77.8C96.6362 77.6 96.6529 77.4167 96.6195 77.25C96.6195 77.0833 96.6195 76.9667 96.6195 76.9C96.4862 76.7667 96.4529 76.6667 96.5195 76.6C96.5862 76.5333 96.6362 76.4667 96.6695 76.4C96.8362 76.4 96.8862 76.2333 96.8195 75.9C96.7529 75.7 96.8695 75.2333 97.1695 74.5C97.4695 73.7333 97.8195 73.0167 98.2195 72.35C98.6529 71.55 99.1862 70.6667 99.8195 69.7C100.453 68.7333 101.003 68.0833 101.47 67.75C102.67 66.7167 103.936 66.0667 105.27 65.8C105.87 65.6333 106.253 65.55 106.42 65.55C106.62 65.55 106.786 65.6 106.92 65.7C107.086 65.8 107.286 65.9833 107.52 66.25C108.186 66.5167 108.803 66.9833 109.37 67.65C109.936 68.3167 110.253 69.0167 110.32 69.75C110.353 69.95 110.37 70.2667 110.37 70.7C110.37 72.4333 109.653 74.3667 108.22 76.5C107.52 77.4667 106.87 78.25 106.27 78.85C105.67 79.45 104.986 79.9833 104.22 80.45C103.62 80.85 102.886 81.2 102.02 81.5C101.153 81.8333 100.42 82.0167 99.8195 82.05ZM103.97 76.2C104.47 75.6333 104.87 75.0833 105.17 74.55C105.503 74.0167 105.803 73.35 106.07 72.55C106.17 72.1833 106.22 71.7333 106.22 71.2C106.22 70.5333 106.153 70.15 106.02 70.05C105.82 69.95 105.586 69.9 105.32 69.9C104.82 69.9 104.336 70.1333 103.87 70.6C103.236 71.1 102.686 71.7167 102.22 72.45C101.786 73.1833 101.253 74.2333 100.62 75.6C100.42 76.1 100.32 76.5333 100.32 76.9C100.32 77.6667 100.62 78.05 101.22 78.05C101.92 78.05 102.836 77.4333 103.97 76.2Z" fill="black"/>
</svg>
