<svg width="561" height="291" viewBox="0 0 561 291" fill="none" xmlns="http://www.w3.org/2000/svg">
<rect x="1.19531" y="0.5" width="559" height="290" rx="39.5" stroke="black"/>
<rect x="46.1953" y="45.5" width="181" height="19" rx="9.5" stroke="black"/>
<rect x="46.1953" y="145.5" width="470" height="34" rx="9.5" stroke="black"/>
<rect x="46.1953" y="206.5" width="470" height="34" rx="9.5" stroke="black"/>
<rect x="252.195" y="45.5" width="56" height="19" rx="9.5" stroke="black"/>
<rect x="45.6953" y="86" width="136" height="38" rx="10" fill="#FFE294"/>
<path d="M68.9302 105.416C68.9302 104.328 69.1755 103.352 69.6662 102.488C70.1569 101.613 70.8235 100.931 71.6662 100.44C72.5195 99.9493 73.4635 99.704 74.4982 99.704C75.7142 99.704 76.7755 99.9973 77.6822 100.584C78.5889 101.171 79.2502 102.003 79.6662 103.08H77.9222C77.6129 102.408 77.1649 101.891 76.5782 101.528C76.0022 101.165 75.3089 100.984 74.4982 100.984C73.7195 100.984 73.0209 101.165 72.4022 101.528C71.7835 101.891 71.2982 102.408 70.9462 103.08C70.5942 103.741 70.4182 104.52 70.4182 105.416C70.4182 106.301 70.5942 107.08 70.9462 107.752C71.2982 108.413 71.7835 108.925 72.4022 109.288C73.0209 109.651 73.7195 109.832 74.4982 109.832C75.3089 109.832 76.0022 109.656 76.5782 109.304C77.1649 108.941 77.6129 108.424 77.9222 107.752H79.6662C79.2502 108.819 78.5889 109.645 77.6822 110.232C76.7755 110.808 75.7142 111.096 74.4982 111.096C73.4635 111.096 72.5195 110.856 71.6662 110.376C70.8235 109.885 70.1569 109.208 69.6662 108.344C69.1755 107.48 68.9302 106.504 68.9302 105.416ZM83.2896 103.656C83.5456 103.155 83.9082 102.765 84.3776 102.488C84.8576 102.211 85.4389 102.072 86.1216 102.072V103.576H85.7376C84.1056 103.576 83.2896 104.461 83.2896 106.232V111H81.8336V102.232H83.2896V103.656ZM95.8023 106.28C95.8023 106.557 95.7863 106.851 95.7543 107.16H88.7463C88.7996 108.024 89.093 108.701 89.6263 109.192C90.1703 109.672 90.8263 109.912 91.5943 109.912C92.2236 109.912 92.7463 109.768 93.1623 109.48C93.589 109.181 93.8876 108.787 94.0583 108.296H95.6263C95.3916 109.139 94.9223 109.827 94.2183 110.36C93.5143 110.883 92.6396 111.144 91.5943 111.144C90.7623 111.144 90.0156 110.957 89.3543 110.584C88.7036 110.211 88.1916 109.683 87.8183 109C87.445 108.307 87.2583 107.507 87.2583 106.6C87.2583 105.693 87.4396 104.899 87.8023 104.216C88.165 103.533 88.6716 103.011 89.3223 102.648C89.9836 102.275 90.741 102.088 91.5943 102.088C92.4263 102.088 93.1623 102.269 93.8023 102.632C94.4423 102.995 94.933 103.496 95.2743 104.136C95.6263 104.765 95.8023 105.48 95.8023 106.28ZM94.2983 105.976C94.2983 105.421 94.1756 104.947 93.9303 104.552C93.685 104.147 93.349 103.843 92.9223 103.64C92.5063 103.427 92.0423 103.32 91.5303 103.32C90.7943 103.32 90.165 103.555 89.6423 104.024C89.1303 104.493 88.837 105.144 88.7623 105.976H94.2983ZM97.1802 106.584C97.1802 105.688 97.3615 104.904 97.7242 104.232C98.0869 103.549 98.5829 103.021 99.2122 102.648C99.8522 102.275 100.562 102.088 101.34 102.088C102.108 102.088 102.775 102.253 103.34 102.584C103.906 102.915 104.327 103.331 104.604 103.832V102.232H106.076V111H104.604V109.368C104.316 109.88 103.884 110.307 103.308 110.648C102.743 110.979 102.082 111.144 101.324 111.144C100.546 111.144 99.8415 110.952 99.2122 110.568C98.5829 110.184 98.0869 109.645 97.7242 108.952C97.3615 108.259 97.1802 107.469 97.1802 106.584ZM104.604 106.6C104.604 105.939 104.471 105.363 104.204 104.872C103.938 104.381 103.575 104.008 103.116 103.752C102.668 103.485 102.172 103.352 101.628 103.352C101.084 103.352 100.588 103.48 100.14 103.736C99.6922 103.992 99.3349 104.365 99.0682 104.856C98.8015 105.347 98.6682 105.923 98.6682 106.584C98.6682 107.256 98.8015 107.843 99.0682 108.344C99.3349 108.835 99.6922 109.213 100.14 109.48C100.588 109.736 101.084 109.864 101.628 109.864C102.172 109.864 102.668 109.736 103.116 109.48C103.575 109.213 103.938 108.835 104.204 108.344C104.471 107.843 104.604 107.261 104.604 106.6ZM110.313 103.432V108.6C110.313 109.027 110.403 109.331 110.585 109.512C110.766 109.683 111.081 109.768 111.529 109.768H112.601V111H111.289C110.478 111 109.87 110.813 109.465 110.44C109.059 110.067 108.857 109.453 108.857 108.6V103.432H107.721V102.232H108.857V100.024H110.313V102.232H112.601V103.432H110.313ZM122.365 106.28C122.365 106.557 122.349 106.851 122.317 107.16H115.309C115.362 108.024 115.655 108.701 116.189 109.192C116.733 109.672 117.389 109.912 118.157 109.912C118.786 109.912 119.309 109.768 119.725 109.48C120.151 109.181 120.45 108.787 120.621 108.296H122.189C121.954 109.139 121.485 109.827 120.781 110.36C120.077 110.883 119.202 111.144 118.157 111.144C117.325 111.144 116.578 110.957 115.917 110.584C115.266 110.211 114.754 109.683 114.381 109C114.007 108.307 113.821 107.507 113.821 106.6C113.821 105.693 114.002 104.899 114.365 104.216C114.727 103.533 115.234 103.011 115.885 102.648C116.546 102.275 117.303 102.088 118.157 102.088C118.989 102.088 119.725 102.269 120.365 102.632C121.005 102.995 121.495 103.496 121.837 104.136C122.189 104.765 122.365 105.48 122.365 106.28ZM120.861 105.976C120.861 105.421 120.738 104.947 120.493 104.552C120.247 104.147 119.911 103.843 119.485 103.64C119.069 103.427 118.605 103.32 118.093 103.32C117.357 103.32 116.727 103.555 116.205 104.024C115.693 104.493 115.399 105.144 115.325 105.976H120.861ZM136.008 103.112C136.008 104.04 135.688 104.813 135.048 105.432C134.419 106.04 133.454 106.344 132.152 106.344H130.008V111H128.552V99.848H132.152C133.411 99.848 134.366 100.152 135.016 100.76C135.678 101.368 136.008 102.152 136.008 103.112ZM132.152 105.144C132.963 105.144 133.56 104.968 133.944 104.616C134.328 104.264 134.52 103.763 134.52 103.112C134.52 101.736 133.731 101.048 132.152 101.048H130.008V105.144H132.152ZM141.642 111.144C140.821 111.144 140.074 110.957 139.402 110.584C138.741 110.211 138.218 109.683 137.834 109C137.461 108.307 137.274 107.507 137.274 106.6C137.274 105.704 137.466 104.915 137.85 104.232C138.245 103.539 138.778 103.011 139.45 102.648C140.122 102.275 140.874 102.088 141.706 102.088C142.538 102.088 143.29 102.275 143.962 102.648C144.634 103.011 145.162 103.533 145.546 104.216C145.941 104.899 146.138 105.693 146.138 106.6C146.138 107.507 145.935 108.307 145.53 109C145.135 109.683 144.597 110.211 143.914 110.584C143.231 110.957 142.474 111.144 141.642 111.144ZM141.642 109.864C142.165 109.864 142.655 109.741 143.114 109.496C143.573 109.251 143.941 108.883 144.218 108.392C144.506 107.901 144.65 107.304 144.65 106.6C144.65 105.896 144.511 105.299 144.234 104.808C143.957 104.317 143.594 103.955 143.146 103.72C142.698 103.475 142.213 103.352 141.69 103.352C141.157 103.352 140.666 103.475 140.218 103.72C139.781 103.955 139.429 104.317 139.162 104.808C138.895 105.299 138.762 105.896 138.762 106.6C138.762 107.315 138.89 107.917 139.146 108.408C139.413 108.899 139.765 109.267 140.202 109.512C140.639 109.747 141.119 109.864 141.642 109.864ZM149.508 99.16V111H148.052V99.16H149.508ZM153.446 99.16V111H151.99V99.16H153.446Z" fill="#C69615"/>
<g clip-path="url(#clip0_151:2)">
<path d="M502.07 39.5566C502.065 39.6312 502.062 39.7325 502.085 39.8361C502.109 39.9437 502.177 40.1211 502.367 40.2294C502.545 40.3309 502.721 40.3072 502.808 40.2872C502.857 40.2762 502.902 40.2606 502.944 40.2437C502.937 40.5064 502.916 40.7739 502.893 41.054C502.884 41.175 502.874 41.2984 502.865 41.4248L502.865 41.4271C502.77 42.8469 502.505 44.2504 502.073 45.6076L502.072 45.6104C501.43 47.6722 500.401 49.5954 499.038 51.2788L499.036 51.2811C498.061 52.501 496.909 53.5719 495.618 54.4594C494.491 55.2206 493.203 55.6232 491.825 55.9117C490.751 56.1332 489.656 56.2319 488.56 56.2057C486.476 56.1474 484.422 55.7 482.507 54.8869L482.5 54.884L482.493 54.8814C481.331 54.4273 480.242 53.8089 479.259 53.0457C477.827 51.8746 476.727 50.3566 476.063 48.6396L476.063 48.6385C475.467 47.106 475.116 45.4908 475.022 43.8512L475.022 43.8512L475.022 43.8443C474.94 42.6894 474.968 41.5294 475.106 40.3797L475.108 40.3654L475.109 40.351C475.116 40.232 475.116 40.1127 475.109 39.9936L475.08 39.5244H474.658C474.649 39.5225 474.638 39.5203 474.625 39.5184C474.608 39.5159 474.564 39.5098 474.508 39.514C474.744 38.4892 475.184 37.6686 476.068 37.1379L476.069 37.1373C476.172 37.0748 476.267 36.991 476.338 36.8794C476.41 36.7671 476.44 36.6528 476.451 36.5539C476.461 36.4611 476.454 36.3783 476.448 36.3266C476.444 36.2894 476.442 36.271 476.44 36.2569C476.438 36.2424 476.437 36.2325 476.435 36.2116L476.435 36.2037L476.434 36.1958C476.314 35.1296 476.398 34.0504 476.683 33.0151C476.778 32.7018 476.888 32.4489 477.047 32.2531C477.106 32.6834 477.229 33.1519 477.545 33.5722C477.656 33.9147 477.848 34.2262 478.167 34.4106C478.52 34.6147 478.919 34.6007 479.294 34.479C479.331 34.4693 479.369 34.4617 479.408 34.456L479.408 34.4562L479.421 34.4538C480.259 34.3057 481.111 34.2436 481.963 34.2685C482.133 34.2761 482.303 34.2459 482.461 34.1798C482.614 34.1154 482.752 34.0184 482.864 33.8955C483.223 33.5411 483.653 33.2663 484.128 33.09C484.196 33.0649 484.264 33.0419 484.333 33.0209C484.035 33.4817 483.807 33.9842 483.655 34.5128C483.542 34.8861 483.487 35.2593 483.595 35.6279C483.704 36.0025 483.955 36.2872 484.271 36.5362L484.271 36.5364L484.281 36.5441C485.13 37.1777 486.128 37.583 487.179 37.7224C487.158 37.7548 487.132 37.7849 487.104 37.8121L487.094 37.8217L487.084 37.8318C486.627 38.3179 486.065 38.6959 485.44 38.9372L485.439 38.9374L485.434 38.9393C485.41 38.9488 485.357 38.969 485.306 38.9961C485.253 39.024 485.155 39.0819 485.075 39.1888C484.982 39.3138 484.94 39.4708 484.964 39.633C484.984 39.7736 485.049 39.8855 485.105 39.9629L485.106 39.9642C485.402 40.3712 485.491 40.8322 485.442 41.3755C484.872 41.1773 484.268 41.0906 483.664 41.1208L483.664 41.1208L483.658 41.1211C483.339 41.1406 483.003 41.2247 482.758 41.4497C482.48 41.7064 482.409 42.0621 482.494 42.4054L482.494 42.4063C482.86 43.8798 483.705 45.0561 485.333 45.4971L485.334 45.4974C485.999 45.676 486.819 45.8249 487.638 45.2791L487.638 45.2791L487.64 45.2776C488.107 44.9618 488.647 44.7645 489.21 44.7034L489.21 44.7033C489.791 44.6394 490.333 44.8629 490.724 45.3118C489.787 45.607 488.927 46.0918 488.233 46.8954L488.232 46.8959C487.857 47.3313 487.325 47.4994 486.623 47.6094C486.148 47.6701 485.669 47.691 485.19 47.6719L483.77 47.6154L484.842 48.5488C485.339 48.9806 485.876 49.3634 486.447 49.6919C487.557 50.3493 488.765 50.8572 490.135 50.9436C491.452 51.0424 492.757 50.634 493.779 49.8023C494.466 49.2545 495.041 48.5832 495.476 47.8243L495.465 48.9677L496.314 48.1871C496.685 47.8465 496.967 47.4221 497.137 46.9497C497.666 45.6347 497.754 44.2824 497.7 42.9693C497.725 43.009 497.754 43.0489 497.785 43.088L498.302 43.7283L498.632 42.9746C499.104 41.8982 499.141 40.824 499.003 39.7851L499.003 39.7851L499.002 39.7788C498.93 39.2832 498.827 38.7927 498.694 38.3101C498.78 38.3387 498.878 38.3616 498.988 38.3701L499.618 38.4188L499.52 37.7939C499.288 36.3196 498.49 34.9925 497.295 34.0893C496.553 33.4819 495.695 33.1019 494.859 32.7889C494.964 32.7442 495.11 32.6565 495.197 32.4819C495.305 32.2668 495.254 32.0617 495.21 31.949C495.166 31.835 495.097 31.7289 495.034 31.6411L495.026 31.6296L495.017 31.6187C494.906 31.4812 494.775 31.3621 494.627 31.2657L494.625 31.265C494.584 31.2383 494.543 31.2123 494.501 31.1868C494.519 31.1869 494.538 31.187 494.557 31.187C494.776 31.187 495.012 31.1781 495.256 31.1388C496.32 31.5379 497.316 32.0987 498.206 32.8012L498.206 32.8013L498.212 32.8054C498.962 33.3808 499.612 34.0738 500.136 34.8568L500.419 35.2806L500.837 34.9887C500.934 34.9209 501.008 34.8447 501.064 34.7664C501.465 35.5347 501.748 36.3593 501.903 37.213L501.905 37.2205L501.906 37.2279C502.07 37.9929 502.125 38.7767 502.07 39.5566ZM502.07 39.5566C502.07 39.5561 502.07 39.5556 502.07 39.555L502.569 39.5928M502.07 39.5566C502.07 39.5571 502.07 39.5575 502.07 39.5579L502.569 39.5928M502.569 39.5928C502.574 39.513 502.579 39.4332 502.582 39.3533L502.946 39.9493C502.944 39.8584 502.94 39.7678 502.933 39.677C502.898 39.7024 502.861 39.7265 502.824 39.7493C502.623 39.8508 502.552 39.8215 502.569 39.5928ZM498.384 37.6171C498.376 37.6143 498.367 37.6113 498.358 37.6083C498.247 37.571 498.109 37.5248 498.037 37.5948C497.967 37.6626 498.006 37.7776 498.038 37.8738L498.384 37.6171ZM498.384 37.6171C498.415 37.6272 498.446 37.6396 498.476 37.6534M498.384 37.6171L498.476 37.6534M498.476 37.6534C498.482 37.6827 498.489 37.7122 498.495 37.7417M498.476 37.6534L498.491 37.7604C498.493 37.7539 498.494 37.7477 498.495 37.7417M498.476 37.6534C498.482 37.6564 498.489 37.6595 498.495 37.6626M498.476 37.6534L498.495 37.6626M498.495 37.7417C498.501 37.6988 498.497 37.6697 498.496 37.6637C498.496 37.6633 498.495 37.6629 498.495 37.6626M498.495 37.7417L498.495 37.6626M494.053 32.5446C494.053 32.5446 494.054 32.545 494.056 32.5459C494.054 32.5451 494.053 32.5447 494.053 32.5446ZM493.811 30.8361L493.809 30.6771L493.811 30.8361ZM494.097 32.9296C494.097 32.9296 494.097 32.9294 494.098 32.9291L494.097 32.9296Z" stroke="black"/>
<path d="M503.547 83.0655C503.655 83.098 503.764 83.1302 503.872 83.1622L503.874 83.1625C503.949 83.1848 504.046 83.2188 504.136 83.277C504.232 83.3395 504.362 83.4589 504.403 83.6571C504.441 83.8384 504.382 83.9856 504.348 84.0559C504.313 84.1295 504.267 84.1947 504.237 84.2359C503.391 85.4051 502.534 86.5721 501.648 87.7215M503.547 83.0655L503.832 83.9428C502.987 85.1104 502.133 86.2728 501.252 87.4162C499.598 89.5643 497.816 91.6125 495.915 93.5498M503.547 83.0655H507.253C506.818 84.0966 506.314 85.0981 505.744 86.0632L505.744 86.0632L505.739 86.0712C504.915 87.5276 503.991 88.9264 502.973 90.2576L502.973 90.2576L502.969 90.2635C502.161 91.354 501.289 92.397 500.359 93.3873C499.264 94.5223 498.176 95.637 496.998 96.6491L496.997 96.6503C496.869 96.761 496.743 96.8714 496.618 96.9809C496.222 97.3267 495.837 97.6641 495.437 97.9759C494.768 98.4898 494.083 98.9817 493.391 99.4787C493.231 99.5939 493.07 99.7093 492.909 99.8253C491.612 100.748 490.256 101.587 488.849 102.337L488.833 102.346L488.818 102.356C488.776 102.382 488.727 102.396 488.677 102.395C488.627 102.394 488.579 102.378 488.538 102.351L488.526 102.342L488.513 102.334C488.322 102.22 488.127 102.114 487.943 102.015C487.922 102.003 487.901 101.992 487.881 101.981C487.676 101.87 487.486 101.766 487.31 101.654C487.139 101.543 486.968 101.433 486.798 101.324C486.005 100.813 485.223 100.309 484.459 99.7748C481.201 97.4713 478.266 94.748 475.734 91.6768C474.831 90.5673 473.968 89.436 473.17 88.2615L473.17 88.2615L473.169 88.259C472.172 86.8114 471.284 85.2936 470.511 83.7175L470.511 83.7175L470.509 83.7138C470.425 83.5443 470.343 83.3937 470.266 83.2524C470.233 83.1915 470.201 83.1323 470.17 83.0741M503.547 83.0655L470.17 83.0741M501.648 87.7215L501.253 87.4169L501.648 87.7213C501.648 87.7213 501.648 87.7214 501.648 87.7215ZM501.648 87.7215C499.982 89.8851 498.187 91.948 496.273 93.8993M496.273 93.8993C496.273 93.8992 496.273 93.8992 496.273 93.8991L495.915 93.5498M496.273 93.8993C495.295 94.9006 494.254 95.8384 493.154 96.7071L493.152 96.709C491.947 97.6487 490.658 98.5058 489.191 99.0941M496.273 93.8993C496.273 93.8995 496.272 93.8997 496.272 93.8999L495.915 93.5498M495.915 93.5498C494.953 94.5358 493.927 95.4593 492.844 96.3148L489.191 99.0941M489.191 99.0941C489.198 99.0908 489.204 99.0875 489.211 99.0841L488.989 98.6361L489.175 99.1005C489.18 99.0983 489.185 99.0962 489.191 99.0941ZM489.191 99.0941C489.045 99.1625 488.886 99.198 488.725 99.198C488.557 99.198 488.391 99.1595 488.24 99.0854M489.191 99.0941L476.471 83.2859L476.398 83.0741H475.548M488.24 99.0854C488.241 99.0858 488.242 99.0862 488.243 99.0866L488.46 98.6361L488.238 99.0841C488.239 99.0845 488.24 99.0849 488.24 99.0854ZM488.24 99.0854C487.401 98.6809 486.587 98.2288 485.8 97.7312L485.795 97.7282L485.795 97.7282C483.097 95.9782 480.665 93.8536 478.575 91.4191M478.575 91.4191C478.576 91.4194 478.576 91.4196 478.576 91.4198L478.954 91.0926L478.575 91.4183C478.575 91.4185 478.575 91.4188 478.575 91.4191ZM478.575 91.4191C476.762 89.3242 475.172 87.0486 473.832 84.6287L473.831 84.6273C473.794 84.56 473.75 84.4746 473.721 84.3844C473.692 84.2946 473.658 84.1414 473.714 83.9692C473.773 83.7877 473.899 83.6806 473.995 83.6218C474.084 83.5669 474.181 83.5321 474.255 83.5081L474.256 83.508C474.689 83.3687 475.115 83.2228 475.548 83.0741M475.548 83.0741H470.17M475.548 83.0741C475.583 83.0618 475.619 83.0496 475.654 83.0373C475.87 82.963 476.088 82.8881 476.309 82.813C476.31 82.8128 476.31 82.8126 476.311 82.8125L470.17 83.0741" stroke="black"/>
<path d="M499.855 63.6189C500.666 63.7557 501.474 63.8818 502.285 64.0084C502.963 64.1142 503.644 64.2204 504.33 64.3335C505.201 64.4772 506.1 64.6312 506.997 64.785C507.846 64.9306 508.694 65.076 509.518 65.2122L509.518 65.2123C510.654 65.4013 511.788 65.5831 512.923 65.7651C513.105 65.7943 513.288 65.8236 513.47 65.8529C513.738 64.513 513.936 63.1603 514.063 61.8001L514.064 61.7959C514.297 59.5252 514.44 57.2418 514.539 54.9473L514.539 54.947C514.587 53.8526 514.615 52.7605 514.645 51.6635C514.66 51.0904 514.675 50.516 514.693 49.9391L514.693 49.9383C514.723 49.011 514.723 48.1012 514.723 47.1818C514.723 46.5991 514.723 46.0125 514.731 45.4153C513.682 45.5976 512.634 45.7681 511.582 45.9282C509.929 46.187 508.267 46.4133 506.597 46.5863C505.823 46.6734 505.044 46.7206 504.265 46.7277C504.263 46.9556 504.262 47.1838 504.261 47.4121C504.255 48.4562 504.249 49.5035 504.233 50.55C504.696 50.546 505.16 50.5461 505.621 50.5463L505.674 50.5464C506.213 50.5466 506.748 50.5466 507.282 50.5397L507.285 50.5397L507.285 50.5397C507.42 50.5388 507.691 50.547 507.895 50.7545C508.095 50.9578 508.102 51.2253 508.102 51.3533M499.855 63.6189L507.602 51.3544M499.855 63.6189C502.319 63.6203 504.783 63.6227 507.247 63.6262H507.248C507.41 63.6262 507.718 63.6211 507.943 63.4024C508.175 63.1773 508.18 62.865 508.178 62.6982M499.855 63.6189L507.678 62.7032M508.102 51.3533C508.102 51.3537 508.102 51.354 508.102 51.3544H507.602M508.102 51.3533C508.102 51.353 508.102 51.3527 508.102 51.3524L507.602 51.3544M508.102 51.3533C508.117 55.1349 508.143 58.9166 508.178 62.6982M507.602 51.3544C507.617 55.1373 507.643 58.9203 507.678 62.7032M508.178 62.6982L507.678 62.7032M508.178 62.6982C508.178 62.6983 508.178 62.6984 508.178 62.6985L507.678 62.7032M504.059 51.0517V50.7359M504.059 51.0517L504.231 50.7832C504.231 50.7832 504.23 50.7799 504.229 50.7743C504.227 50.7663 504.223 50.7538 504.217 50.7386M504.059 51.0517L504.056 50.7358M504.059 51.0517L503.73 50.7302L504.056 50.7358M504.059 50.7359L504.217 50.7386M504.059 50.7359V50.7345M504.059 50.7359L504.056 50.7358M504.217 50.7386C504.217 50.7379 504.216 50.7372 504.216 50.7365M504.217 50.7386L504.23 50.7389L504.216 50.7365M504.216 50.7365L504.23 50.7367L504.216 50.7365ZM504.216 50.7365L504.059 50.7345M504.216 50.7365C504.203 50.706 504.179 50.665 504.137 50.6258C504.11 50.5999 504.082 50.5826 504.059 50.5711M504.059 50.7345V50.5711M504.059 50.7345L504.056 50.7344L504.056 50.7358M504.059 50.5711C504.057 50.5702 504.056 50.5693 504.054 50.5685L504.054 50.5518C504.055 50.5518 504.056 50.5517 504.057 50.5517C504.058 50.5517 504.058 50.5517 504.059 50.5517V50.5711Z" stroke="black"/>
<path d="M477.471 63.6269C475.014 63.6194 472.559 63.6187 470.103 63.6245L470.102 63.6245C470.02 63.6245 469.92 63.6216 469.821 63.6028C469.719 63.5835 469.587 63.5416 469.468 63.4407C469.219 63.2306 469.201 62.9235 469.201 62.748V62.7434H469.201C469.236 58.9463 469.262 55.1499 469.278 51.354C469.278 51.1851 469.302 50.8924 469.553 50.6975C469.669 50.6076 469.792 50.5726 469.882 50.5569C469.971 50.5416 470.058 50.5397 470.125 50.5397H470.13V50.5397C470.607 50.5444 471.105 50.544 471.606 50.5437C472.122 50.5433 472.642 50.5429 473.146 50.548C473.13 49.5232 473.125 48.4984 473.119 47.4765C473.118 47.228 473.117 46.9796 473.115 46.7314C471.829 46.7268 470.56 46.5681 469.322 46.4133C469.203 46.3984 469.084 46.3835 468.966 46.3689C468.966 46.3688 468.965 46.3688 468.965 46.3688L477.471 63.6269ZM477.471 63.6269C477.065 63.6922 476.657 63.7569 476.249 63.8217C475.515 63.9381 474.78 64.0548 474.049 64.1753L474.049 64.1753C473.293 64.3002 472.529 64.4305 471.766 64.5605C471.098 64.6743 470.431 64.788 469.772 64.8976C469.167 64.9975 468.58 65.0898 467.99 65.1825C467.456 65.2664 466.921 65.3505 466.369 65.4408L477.471 63.6269ZM463.912 65.8502C464.026 65.831 464.14 65.8118 464.254 65.7926C464.958 65.674 465.663 65.5551 466.369 65.4408L463.912 65.8502ZM463.912 65.8502C463.757 65.091 463.632 64.323 463.524 63.5486L463.524 63.5479C463.292 61.9113 463.152 60.2641 463.036 58.5967C462.94 57.2156 462.885 55.8399 462.829 54.4536C462.818 54.1713 462.806 53.8886 462.794 53.6053C462.683 50.8753 462.635 48.1447 462.649 45.4137C463.161 45.5059 463.676 45.5909 464.189 45.6688L463.912 65.8502ZM462.151 45.1125C462.151 44.9045 462.196 44.8202 462.428 44.8649L462.151 45.1125Z" stroke="black"/>
<path d="M486.763 102.493C486.974 102.63 487.193 102.751 487.4 102.863C487.44 102.885 487.479 102.907 487.519 102.928C487.68 103.015 487.833 103.097 487.982 103.185C488.181 103.316 488.413 103.389 488.651 103.393C488.889 103.397 489.124 103.334 489.327 103.21C490.767 102.442 492.155 101.583 493.483 100.638L493.485 100.636C493.644 100.522 493.803 100.408 493.962 100.293C494.656 99.7951 495.358 99.2912 496.041 98.7661L496.042 98.7656C496.445 98.4545 496.836 98.1118 497.212 97.782C497.358 97.6538 497.502 97.5275 497.643 97.4058L497.643 97.4057C498.862 96.357 499.98 95.2118 501.074 94.0775L501.074 94.0775L501.079 94.0727C502.035 93.0543 502.932 91.9816 503.763 90.8601C504.807 89.4946 505.754 88.0599 506.6 86.566C507.262 85.4444 507.839 84.2754 508.325 83.0689C508.345 83.0692 508.364 83.0696 508.384 83.0699C508.62 83.074 508.856 83.078 509.091 83.0829C507.055 87.2449 504.45 91.1097 501.347 94.5674L501.346 94.568C500.484 95.5322 499.597 96.4746 498.66 97.353L498.658 97.3549C496.873 99.0459 494.959 100.598 492.933 101.997L492.933 101.998C491.605 102.918 490.213 103.744 488.768 104.471L488.748 104.481L488.728 104.493C488.721 104.497 488.713 104.5 488.704 104.5C488.695 104.5 488.686 104.497 488.679 104.493L488.668 104.486L488.656 104.479C486.601 103.35 484.627 102.08 482.75 100.68C480.501 98.982 478.404 97.0955 476.483 95.0412L476.481 95.0401C474.997 93.4634 473.623 91.788 472.37 90.0256L472.37 90.0256L472.368 90.023C470.931 88.03 469.658 85.9257 468.562 83.7306C468.51 83.6253 468.459 83.5277 468.412 83.4354C468.35 83.3144 468.292 83.2025 468.241 83.0941C468.306 83.0947 468.373 83.096 468.443 83.0976C468.462 83.098 468.481 83.0985 468.5 83.0989C468.675 83.1031 468.868 83.1077 469.069 83.0989C469.13 83.2381 469.196 83.3705 469.261 83.4962C469.306 83.5834 469.349 83.6643 469.391 83.7423C469.466 83.8825 469.535 84.0134 469.603 84.1546L469.603 84.1546L469.605 84.1575C470.398 85.7771 471.309 87.337 472.332 88.8246M486.763 102.493L487.034 102.073L486.763 102.494C486.763 102.494 486.763 102.494 486.763 102.493ZM486.763 102.493C486.616 102.399 486.468 102.304 486.32 102.209C485.506 101.686 484.68 101.156 483.877 100.591L483.876 100.59C480.543 98.2362 477.541 95.4522 474.949 92.3118L474.947 92.3091L474.947 92.3091C474.032 91.184 473.15 90.0291 472.332 88.8246M472.332 88.8246C472.332 88.825 472.332 88.8254 472.333 88.8258L472.745 88.5425L472.331 88.8235C472.331 88.8239 472.332 88.8243 472.332 88.8246ZM499.002 97.7179C499.954 96.8255 500.851 95.8711 501.719 94.9013C505.001 91.2439 507.732 87.1353 509.828 82.703L499.002 97.7179ZM499.002 97.7179C497.198 99.4266 495.264 100.995 493.217 102.409L499.002 97.7179Z" stroke="black"/>
<path d="M464.337 44.6887L464.337 44.6887C463.73 44.5967 463.122 44.4945 462.52 44.3822C462.387 44.3568 462.075 44.3137 461.842 44.5549C461.734 44.6664 461.691 44.7939 461.672 44.8819C461.653 44.9688 461.65 45.0536 461.649 45.117H461.649L461.649 45.1185C461.634 47.9642 461.682 50.8094 461.793 53.654L461.793 53.6542C461.799 53.7972 461.805 53.9403 461.81 54.0835C461.87 55.609 461.93 57.1431 462.037 58.6748C462.154 60.3449 462.295 62.0178 462.532 63.6961C462.641 64.4746 462.767 65.2548 462.925 66.0313C462.802 66.053 462.68 66.0738 462.559 66.0931C462.323 65.0737 462.167 64.04 462.018 62.9777L462.018 62.977C461.863 61.8859 461.771 60.7933 461.678 59.6839C461.65 59.3543 461.622 59.0232 461.592 58.6902L461.592 58.6901C461.515 57.8292 461.474 56.9591 461.436 56.0803L461.436 56.0799C461.252 51.9297 461.174 47.7784 461.2 43.6261C461.478 43.7205 461.763 43.8141 462.046 43.8897L462.046 43.8899L462.057 43.8926C463.228 44.178 464.416 44.3944 465.613 44.5407C465.84 44.5706 466.067 44.601 466.295 44.6313C467.201 44.7522 468.113 44.8739 469.026 44.9734L469.027 44.9734C469.655 45.0411 470.291 45.0904 470.919 45.139C471.239 45.1638 471.557 45.1884 471.871 45.2152C472.037 45.2296 472.209 45.2464 472.385 45.2636C472.625 45.287 472.871 45.3111 473.116 45.3303C473.114 45.4643 473.113 45.5981 473.113 45.7315C471.934 45.7272 470.762 45.5863 469.556 45.4411C469.399 45.4223 469.242 45.4034 469.084 45.3847C467.908 45.2439 466.744 45.0623 465.568 44.8789C465.159 44.8151 464.749 44.7512 464.337 44.6887ZM473.381 45.3493C473.381 45.3493 473.38 45.3492 473.378 45.3489C473.38 45.3491 473.381 45.3493 473.381 45.3493Z" stroke="black"/>
<path d="M516.188 43.642C516.206 46.5612 516.196 49.4773 516.098 52.3883C516.036 54.2309 515.965 56.0676 515.832 57.8988L515.832 57.899C515.812 58.175 515.793 58.4498 515.775 58.7238C515.717 59.5584 515.661 60.3847 515.577 61.2097C515.407 62.8718 515.223 64.4996 514.831 66.0919C514.738 66.0748 514.644 66.0574 514.55 66.04C514.518 66.0342 514.487 66.0284 514.456 66.0226C514.726 64.6597 514.926 63.284 515.055 61.9008C515.291 59.5985 515.435 57.2951 515.534 54.9958C515.582 53.8933 515.612 52.7854 515.641 51.6825C515.656 51.1119 515.671 50.5425 515.689 49.976C515.72 49.0445 515.72 48.0941 515.72 47.1532C515.72 46.4971 515.72 45.8456 515.731 45.2084L515.731 45.2084V45.2002C515.731 45.1217 515.728 45.0238 515.708 44.9271C515.688 44.8291 515.643 44.6888 515.524 44.5685C515.277 44.3166 514.94 44.3674 514.796 44.3933C513.677 44.59 512.551 44.7681 511.425 44.9452L516.188 43.642ZM516.188 43.642C515.507 43.8821 514.805 44.0604 514.09 44.1745C512.914 44.3974 511.729 44.5868 510.529 44.7122C510.101 44.7574 509.652 44.8129 509.197 44.869C508.613 44.9411 508.02 45.0144 507.45 45.0686C506.87 45.1238 506.269 45.1663 505.675 45.2082C505.225 45.24 504.779 45.2715 504.35 45.308L516.188 43.642ZM506.49 45.5968L506.49 45.5968C508.143 45.4313 509.782 45.2024 511.425 44.9452L506.49 45.5968ZM506.49 45.5968L506.484 45.5975M506.49 45.5968L506.484 45.5975M506.484 45.5975C505.747 45.6804 505.006 45.7256 504.264 45.7328M506.484 45.5975L504.264 45.7328M504.264 45.7328V45.4134C504.264 45.377 504.264 45.3447 504.264 45.3156L504.264 45.7328Z" stroke="black"/>
<path d="M509.835 82.7116C509.752 82.55 509.597 82.6033 509.467 82.5999C508.994 82.5878 508.518 82.5809 508.043 82.5723C508.555 82.5723 509.065 82.5723 509.577 82.5723C509.67 82.5775 509.851 82.4795 509.835 82.7116Z" fill="#393939"/>
<path d="M469.348 82.5743C468.752 82.6586 468.149 82.5348 467.555 82.6431C467.831 82.49 468.128 82.595 468.414 82.5778C468.7 82.5606 469.037 82.5743 469.348 82.5743Z" fill="#393939"/>
<path d="M477.275 73.3351C477.275 74.3393 477.252 75.3435 477.285 76.3459C477.299 76.7775 477.087 76.781 476.765 76.7896C476.442 76.7982 476.282 76.7156 476.287 76.3391C476.307 74.776 476.287 73.2112 476.301 71.6482C476.301 71.4659 476.164 71.1702 476.485 71.1323C476.806 71.0945 477.094 71.0292 477.315 71.4229C477.944 72.5492 478.628 73.6446 479.287 74.7485C479.431 74.7485 479.447 74.6247 479.492 74.5473C480.108 73.5156 480.721 72.4787 481.331 71.4367C481.434 71.2956 481.578 71.1895 481.744 71.1331C481.91 71.0767 482.089 71.0729 482.257 71.122C482.374 71.1684 482.346 71.2561 482.346 71.337C482.346 73.0565 482.346 74.7817 482.346 76.5127C482.346 76.7019 482.273 76.7707 482.084 76.7861C481.366 76.8446 481.367 76.8498 481.367 76.1396V73.127L480.228 75.0185C480.054 75.3056 479.881 75.5945 479.707 75.8782C479.483 76.2496 479.143 76.2514 478.916 75.8782C478.395 75.0242 477.875 74.169 477.354 73.3127L477.275 73.3351Z" fill="#393939"/>
<path d="M471.802 71.1134C472.323 71.1255 472.908 71.0704 473.485 71.2235C474.276 71.4315 474.837 71.8941 474.967 72.7212C475.101 73.5809 474.896 74.3324 474.068 74.7846C473.895 74.8809 473.903 74.9565 474.008 75.0872C474.323 75.5188 474.63 75.9573 474.937 76.3941C475 76.4818 475.111 76.566 475.036 76.6898C474.962 76.8136 474.835 76.7569 474.729 76.7741C474.263 76.8446 473.903 76.7242 473.699 76.2582C473.635 76.1138 473.492 76.0037 473.425 75.861C473.131 75.2317 472.661 75.0099 471.962 75.089C471.379 75.1543 471.372 75.101 471.372 75.6822C471.372 75.9556 471.372 76.229 471.372 76.5024C471.372 76.6967 471.289 76.7552 471.103 76.7706C470.359 76.8274 470.352 76.8257 470.352 76.0828C470.352 74.5559 470.352 73.029 470.352 71.502C470.352 71.1977 470.435 71.0721 470.754 71.0945C471.074 71.1169 471.403 71.1134 471.802 71.1134ZM471.372 73.1339C471.372 73.4193 471.381 73.7047 471.372 73.9936C471.363 74.1759 471.402 74.267 471.615 74.255C472.05 74.2326 472.482 74.255 472.923 74.2154C473.617 74.1587 473.999 73.746 473.994 73.1201C473.988 72.4942 473.588 72.097 472.894 72.0523C472.458 72.0265 472.026 72.0523 471.584 72.0368C471.41 72.0368 471.367 72.0884 471.372 72.2483C471.379 72.5423 471.372 72.8329 471.372 73.1356V73.1339Z" fill="#393939"/>
<path d="M484.976 73.7013C485.778 72.9688 486.652 72.1727 487.523 71.3714C487.747 71.1668 488.406 71.0034 488.665 71.1238C488.883 71.2269 488.774 71.3525 488.665 71.4677C488.026 72.1314 487.4 72.8072 486.746 73.4572C486.557 73.6446 486.572 73.7426 486.746 73.93C487.44 74.7416 488.122 75.5687 488.804 76.3924C488.868 76.4715 488.996 76.5334 488.936 76.6727C488.875 76.8119 488.752 76.7638 488.644 76.781C488.124 76.8618 487.759 76.6967 487.438 76.2651C487.027 75.7046 486.526 75.2128 486.08 74.678C485.924 74.4906 485.858 74.4734 485.634 74.635C485.011 75.0804 484.907 75.6667 484.98 76.3546C484.994 76.4956 485.073 76.726 484.843 76.7586C484.576 76.8276 484.294 76.8151 484.034 76.7225C483.937 76.6761 483.97 76.5506 483.97 76.4457C483.97 74.7846 483.97 73.1219 483.97 71.4591C483.97 71.2046 484.05 71.0877 484.317 71.1152C484.429 71.1246 484.542 71.1246 484.654 71.1152C484.917 71.0963 485.001 71.2166 485.001 71.4711C484.969 72.2724 484.976 73.0754 484.976 73.7013Z" fill="#393939"/>
<path d="M490.741 75.8834C491.81 75.8834 492.773 75.9006 493.734 75.8748C494.119 75.8628 494.149 76.0296 494.156 76.3391C494.163 76.6486 494.085 76.7879 493.72 76.7879C492.433 76.7655 491.144 76.7879 489.855 76.7741C489.681 76.7741 489.419 76.879 489.36 76.6503C489.315 76.5282 489.301 76.3968 489.32 76.2679C489.338 76.1391 489.389 76.0169 489.468 75.9126C490.131 75.1199 490.778 74.3152 491.429 73.5156C491.812 73.0462 492.194 72.575 492.633 72.0351H491.082C490.63 72.0351 490.181 72.0351 489.73 72.0351C489.496 72.0351 489.371 71.9732 489.395 71.7204C489.405 71.6094 489.405 71.4978 489.395 71.3868C489.383 71.2028 489.449 71.1083 489.648 71.11C491.024 71.11 492.4 71.11 493.778 71.11C494.073 71.11 494.163 71.6258 493.913 71.944C493.429 72.5578 492.931 73.1631 492.438 73.7718C491.897 74.4562 491.352 75.1285 490.741 75.8834Z" fill="#393939"/>
<path d="M512.058 76.7879C511.771 76.8807 511.584 76.7122 511.516 76.4061C511.332 75.5876 510.85 75.2678 510.002 75.4088C509.578 75.4552 509.151 75.4552 508.728 75.4088C508.44 75.3933 508.265 75.4569 508.175 75.7527C508.083 76.0086 507.973 76.2579 507.847 76.499C507.736 76.738 507.011 76.9082 506.816 76.7345C506.672 76.6056 506.797 76.4818 506.849 76.3666C507.534 74.8568 508.223 73.3482 508.916 71.8408C508.942 71.784 508.964 71.7273 508.99 71.6688C509.252 71.0928 509.42 71.0085 510.042 71.1065C510.186 71.1289 510.215 71.2183 510.267 71.318C511.046 73.0158 511.826 74.7164 512.608 76.4199C512.727 76.6795 512.663 76.7913 512.375 76.781C512.288 76.7775 512.2 76.7879 512.058 76.7879ZM510.704 74.5783L509.7 72.3171C509.353 73.115 509.028 73.8303 508.702 74.5679L510.704 74.5783Z" fill="#393939"/>
<path d="M467.068 76.8291C466.371 76.8601 465.682 76.6801 465.091 76.3133C464.974 76.2411 464.776 76.1757 464.835 75.9952C464.881 75.7648 464.996 75.5538 465.166 75.3899C465.277 75.3039 465.373 75.4122 465.465 75.4741C466.061 75.8755 466.791 76.0321 467.501 75.9109C467.715 75.8909 467.916 75.8014 468.072 75.6564C468.136 75.6021 468.186 75.5342 468.219 75.4578C468.251 75.3814 468.266 75.2985 468.262 75.2156C468.258 75.1326 468.234 75.0518 468.193 74.9792C468.153 74.9066 468.096 74.8441 468.027 74.7967C467.751 74.5817 467.408 74.5404 467.087 74.4527C466.715 74.3427 466.334 74.2653 465.973 74.1312C465.376 73.9128 464.979 73.5104 464.949 72.845C464.92 72.1795 465.17 71.6671 465.773 71.3782C466.814 70.8813 467.855 70.9845 468.872 71.4866C469.113 71.6052 469.016 71.7531 468.95 71.913C468.737 72.4185 468.737 72.4289 468.256 72.1984C467.785 71.99 467.264 71.9173 466.754 71.9887C466.628 71.9974 466.506 72.0307 466.393 72.0868C466.281 72.1429 466.181 72.2206 466.1 72.3154C466.046 72.3723 466.005 72.4399 465.98 72.5136C465.956 72.5874 465.947 72.6655 465.955 72.7429C465.963 72.8203 465.988 72.895 466.027 72.9622C466.067 73.0293 466.12 73.0873 466.185 73.1321C466.446 73.304 466.742 73.4183 467.052 73.4675C467.48 73.5569 467.899 73.6788 468.308 73.832C468.865 74.0693 469.243 74.4527 469.273 75.0838C469.299 75.3765 469.237 75.6705 469.095 75.9283C468.953 76.1861 468.736 76.3961 468.473 76.5317C468.044 76.764 467.555 76.8674 467.068 76.8291Z" fill="#393939"/>
<path d="M497.793 73.9489C497.793 73.1184 497.793 72.2878 497.793 71.4573C497.793 71.1977 497.879 71.0893 498.14 71.1134C498.227 71.1237 498.315 71.1237 498.402 71.1134C498.702 71.0842 498.82 71.1891 498.816 71.5123C498.799 72.8501 498.816 74.1879 498.801 75.5274C498.801 75.8266 498.887 75.8971 499.175 75.8902C499.913 75.8696 500.65 75.9023 501.387 75.8748C501.743 75.861 501.776 76.0244 501.755 76.2978C501.738 76.5368 501.825 76.7913 501.408 76.7827C500.322 76.7569 499.233 76.7672 498.146 76.7827C497.886 76.7827 497.799 76.7019 497.799 76.4388C497.799 75.61 497.793 74.7794 497.793 73.9489Z" fill="#393939"/>
<path d="M502.678 73.9438C502.678 73.1373 502.694 72.3308 502.678 71.5261C502.67 71.1908 502.789 71.0739 503.11 71.1169C503.185 71.1255 503.261 71.1255 503.336 71.1169C503.61 71.0911 503.707 71.2046 503.705 71.4814C503.693 72.8089 503.716 74.1346 503.69 75.4604C503.681 75.8352 503.799 75.9057 504.146 75.8937C504.87 75.8662 505.596 75.8937 506.322 75.8782C506.644 75.8679 506.669 76.0313 506.643 76.2686C506.617 76.5058 506.769 76.7844 506.325 76.7844C505.225 76.7689 504.125 76.7724 503.029 76.7844C502.763 76.7844 502.682 76.6898 502.682 76.4405C502.685 75.6031 502.678 74.7726 502.678 73.9438Z" fill="#393939"/>
<path d="M479.277 87.8272C479.277 87.4833 479.277 87.1394 479.277 86.7852C479.277 86.6717 479.202 86.498 479.357 86.4602C479.511 86.4223 479.782 86.3519 479.886 86.4946C479.99 86.6373 480.032 86.5823 480.13 86.5444C480.661 86.3484 481.182 86.3106 481.652 86.6923C481.667 86.7106 481.686 86.7254 481.707 86.7355C481.728 86.7456 481.752 86.7509 481.775 86.7509C481.799 86.7509 481.822 86.7456 481.843 86.7355C481.865 86.7254 481.884 86.7106 481.898 86.6923C482.181 86.4805 482.534 86.3823 482.887 86.4172C483.597 86.4378 483.975 86.7783 484.017 87.4867C484.048 88.0026 484.017 88.5288 484.034 89.0498C484.043 89.3644 483.817 89.2406 483.672 89.2595C483.498 89.2836 483.361 89.2733 483.375 89.0223C483.396 88.601 483.385 88.178 483.375 87.7567C483.366 87.2408 483.141 86.9571 482.74 86.9485C482.339 86.9399 482.015 87.246 481.987 87.7171C481.962 88.1507 481.962 88.5853 481.987 89.0188C482.004 89.3146 481.824 89.2596 481.655 89.2613C481.487 89.263 481.308 89.3008 481.324 89.0154C481.347 88.6061 481.324 88.1969 481.324 87.7876C481.324 87.2322 481.105 86.9571 480.686 86.9502C480.266 86.9434 479.948 87.2787 479.934 87.7962C479.924 88.2055 479.915 88.6165 479.934 89.0257C479.952 89.3232 479.761 89.2613 479.598 89.2613C479.435 89.2613 479.242 89.3197 479.251 89.024C479.292 88.6233 479.277 88.2244 479.277 87.8272Z" fill="#393939"/>
<path d="M496.177 73.9472C496.177 74.764 496.165 75.5825 496.177 76.3993C496.177 76.6881 496.103 76.824 495.799 76.7844C495.737 76.7758 495.674 76.7758 495.612 76.7844C495.256 76.836 495.138 76.6985 495.143 76.3339C495.161 74.7365 495.166 73.1373 495.143 71.5399C495.143 71.0997 495.36 71.1066 495.676 71.1066C495.992 71.1066 496.196 71.1152 496.184 71.5313C496.155 72.336 496.177 73.1408 496.177 73.9472Z" fill="#393939"/>
<path d="M498.015 88.2279V88.8589C498.015 89.2596 497.872 89.4057 497.517 89.2321C497.293 89.122 497.17 89.2217 496.996 89.2492C496.713 89.3017 496.422 89.3017 496.139 89.2492C495.945 89.2248 495.766 89.1286 495.64 88.9798C495.514 88.831 495.448 88.6405 495.457 88.4462C495.447 88.3499 495.457 88.2526 495.485 88.1599C495.513 88.0672 495.56 87.981 495.622 87.9063C495.684 87.8315 495.761 87.7698 495.847 87.7247C495.933 87.6795 496.028 87.6518 496.125 87.6432C496.46 87.6033 496.797 87.5901 497.133 87.6037C497.362 87.6037 497.383 87.5074 497.317 87.3268C497.281 87.2136 497.21 87.1146 497.114 87.0439C497.017 86.9732 496.901 86.9344 496.781 86.9331C496.518 86.9049 496.253 86.9688 496.032 87.1136C495.836 87.2408 495.738 87.203 495.619 87.0087C495.499 86.8144 495.577 86.6975 495.761 86.6132C496.262 86.3763 496.835 86.3345 497.366 86.4963C497.537 86.5419 497.689 86.6409 497.799 86.7787C497.91 86.9165 497.972 87.0857 497.978 87.2615C498.004 87.5796 497.978 87.9029 497.978 88.2244L498.015 88.2279ZM496.951 88.0095C496.788 88.0284 496.615 88.037 496.446 88.0714C496.358 88.0788 496.275 88.1177 496.214 88.181C496.152 88.2442 496.116 88.3275 496.111 88.4153C496.111 88.5029 496.141 88.588 496.197 88.6558C496.254 88.7236 496.332 88.7699 496.419 88.7867C496.549 88.8297 496.689 88.8364 496.823 88.806C496.957 88.7757 497.08 88.7096 497.178 88.6147C497.255 88.5601 497.313 88.4834 497.344 88.3951C497.375 88.3068 497.378 88.2112 497.352 88.1212C497.289 87.9338 497.093 88.0593 496.951 88.0095Z" fill="#393939"/>
<path d="M484.674 87.8478C484.674 86.9537 485.262 86.4051 486.212 86.4103C487.107 86.4103 487.69 86.9743 487.697 87.8306C487.697 88.7196 487.103 89.2939 486.173 89.2905C485.243 89.2871 484.676 88.7265 484.674 87.8478ZM486.177 86.9348C486.061 86.9384 485.947 86.9652 485.841 87.0134C485.736 87.0617 485.641 87.1304 485.563 87.2156C485.485 87.3007 485.425 87.4006 485.386 87.5092C485.348 87.6178 485.332 87.7329 485.339 87.8478C485.333 87.9653 485.352 88.0826 485.393 88.1929C485.434 88.3033 485.496 88.4045 485.577 88.4906C485.658 88.5767 485.755 88.646 485.863 88.6945C485.971 88.743 486.088 88.7696 486.206 88.7729C486.439 88.7477 486.653 88.6371 486.808 88.4631C486.962 88.289 487.045 88.0641 487.041 87.8324C487.041 87.6012 486.951 87.379 486.79 87.2116C486.629 87.0442 486.41 86.9445 486.177 86.933V86.9348Z" fill="#393939"/>
<path d="M489.593 86.9331H488.406C488.233 86.9331 488.059 86.9795 488.059 86.6906C488.059 86.4017 488.203 86.4309 488.391 86.4327C488.965 86.4327 489.539 86.4327 490.113 86.4327C490.226 86.4327 490.393 86.3519 490.445 86.5049C490.474 86.5803 490.482 86.662 490.468 86.7415C490.454 86.8211 490.419 86.8955 490.367 86.9571C489.954 87.4541 489.55 87.9579 489.144 88.46C489.083 88.5339 489.024 88.6113 488.934 88.7265C489.36 88.7738 489.791 88.7847 490.219 88.7592C490.422 88.7592 490.506 88.8039 490.506 89.0257C490.506 89.2475 490.391 89.2527 490.226 89.251C489.626 89.251 489.026 89.251 488.427 89.251C488.302 89.251 488.12 89.3352 488.059 89.1839C488.029 89.1023 488.023 89.0141 488.041 88.9291C488.059 88.8441 488.1 88.7656 488.16 88.7024C488.576 88.2072 488.977 87.7017 489.383 87.1996C489.439 87.1342 489.491 87.0672 489.593 86.9331Z" fill="#393939"/>
<path d="M492.253 89.6413C492.003 89.6757 492.003 89.5639 492.067 89.3834C492.484 88.221 492.902 87.0586 493.301 85.8893C493.393 85.621 493.59 85.6658 493.752 85.7053C493.965 85.7586 493.79 85.9168 493.76 86.0011C493.37 87.1463 492.962 88.2863 492.563 89.4281C492.508 89.5897 492.428 89.6843 492.253 89.6413Z" fill="#393939"/>
<path d="M493.691 89.6413C493.479 89.674 493.413 89.6052 493.488 89.3971C493.906 88.2347 494.326 87.074 494.723 85.9048C494.814 85.64 494.996 85.6606 495.164 85.7019C495.402 85.7621 495.214 85.9323 495.183 86.0217C494.794 87.1549 494.39 88.2829 493.995 89.4126C493.941 89.5656 493.884 89.6843 493.691 89.6413Z" fill="#393939"/>
<path d="M491.347 87.4839C491.104 87.4839 490.927 87.3739 490.927 87.0902C490.927 86.8065 491.083 86.6981 491.361 86.6981C491.638 86.6981 491.767 86.7996 491.776 87.0627C491.784 87.3258 491.638 87.4736 491.347 87.4839Z" fill="#393939"/>
<path d="M491.785 88.9089C491.792 88.9642 491.785 89.0201 491.766 89.0725C491.747 89.1248 491.716 89.1721 491.676 89.2108C491.635 89.2495 491.586 89.2785 491.533 89.2956C491.48 89.3127 491.423 89.3175 491.367 89.3095C491.104 89.3095 490.934 89.1926 490.935 88.9106C490.935 88.6578 491.072 88.534 491.336 88.5254C491.6 88.5168 491.773 88.608 491.785 88.9089Z" fill="#393939"/>
</g>
<defs>
<clipPath id="clip0_151:2">
<rect width="56" height="76" fill="white" transform="translate(460.695 29)"/>
</clipPath>
</defs>
</svg>
