<svg width="206" height="25" viewBox="0 0 206 25" fill="none" xmlns="http://www.w3.org/2000/svg">
<path fill-rule="evenodd" clip-rule="evenodd" d="M94.8731 3.58324C94.1283 3.6256 93.3842 3.67126 92.6397 3.71361C82.7739 4.10784 72.9054 4.58025 63.0269 5.16345C56.8222 5.52836 52.5016 5.80529 48.9477 6.05942C32.8765 6.9163 16.8444 8.15439 0.9234 9.90073C0.630823 9.93331 0.482569 9.99189 0.463998 10.0017C0.0430519 10.2004 0.00688802 10.5426 0.000697645 10.7087C-0.00744759 10.9433 0.0508748 11.2528 0.435004 11.458C0.480943 11.4808 0.583253 11.5362 0.758864 11.5493C0.830868 11.5558 1.70533 11.4939 3.35913 11.3669C3.27117 11.5493 3.26726 11.7252 3.30049 11.8849C3.33372 12.0412 3.47937 12.4974 4.09254 12.5463C4.58908 12.5854 8.02897 12.0901 9.36479 11.9598C14.002 11.5102 18.6331 10.9921 23.2736 10.5751C30.5336 9.92022 37.7988 9.32729 45.065 8.75061C50.0186 8.35312 54.9726 7.96539 59.9288 7.58745C66.153 7.19648 72.3799 6.83481 78.6087 6.509C96.5054 6.02355 114.403 5.91275 132.198 6.00072C153.405 6.10824 174.723 5.93556 195.793 8.44103L194.744 8.48017L194.369 8.49321C185.201 7.65262 174.173 8.30422 166.405 8.22602C132.961 7.8937 100.048 8.97864 66.7317 11.6438C53.6553 12.6929 40.5861 14.1558 27.5795 15.8337C23.081 16.4169 11.4001 17.7885 9.80984 18.3C9.26671 18.4727 9.12042 18.8474 9.08882 18.9777C9.04125 19.1732 9.06178 19.3622 9.15464 19.5479C9.21491 19.6684 9.31721 19.8086 9.51726 19.9161C9.5935 19.9585 9.73165 20.0138 9.94767 20.0431C10.1451 20.0692 10.4963 20.0855 11.0235 20.0855C53.5162 19.9129 95.8473 14.8986 138.268 12.7483C153.923 11.9533 169.579 11.2007 185.237 10.4676C188.303 10.3243 191.372 10.2298 194.441 10.119C195.086 10.1809 195.718 10.2493 196.341 10.3275L189.29 10.6989C175.238 11.4385 161.225 12.4876 147.199 13.641C114.716 16.3094 82.3809 20.7501 49.87 22.9754C49.4217 23.008 49.0826 23.3957 49.1132 23.8453C49.1438 24.2949 49.5332 24.6338 49.9815 24.6012C82.4995 22.3759 114.843 17.9319 147.332 15.2635C161.342 14.1134 175.339 13.0643 189.375 12.3247C194.366 12.0641 201.355 11.6959 202.687 11.6209C202.847 11.6112 202.938 11.6047 202.954 11.6014C203.339 11.5591 203.476 11.331 203.495 11.3049C203.694 11.0605 203.71 10.8097 203.648 10.5784C203.609 10.435 203.508 10.1353 203.095 10.0115C202.984 9.97887 202.873 9.94628 202.759 9.91695C203.984 9.89741 205.007 9.87139 205.291 9.80623C205.89 9.66613 205.984 9.20345 205.998 9.03403C206.011 8.85483 205.975 8.66261 205.831 8.47364C205.773 8.39545 205.675 8.29117 205.499 8.20646C205.411 8.16736 205.212 8.1022 204.864 8.04681C193.649 6.27767 182.35 5.38826 171.019 4.92561L178.046 4.98098C178.144 4.98098 178.19 4.97772 178.199 4.97772C178.613 4.94188 178.757 4.68774 178.789 4.64212C178.946 4.42383 178.975 4.19901 178.92 3.97746C178.916 3.96117 178.825 3.52783 178.388 3.39099L182.947 3.33236C183.872 3.32259 184.331 3.30961 184.413 3.30309C184.813 3.26399 184.957 3.02934 184.986 2.99025C185.178 2.74915 185.198 2.49827 185.126 2.25391C185.097 2.15291 184.996 1.78801 184.504 1.69027C184.478 1.68375 184.351 1.66752 184.129 1.66426C182.106 1.62842 167.503 1.65769 161.886 1.69027C152.865 1.7424 143.84 1.79783 134.818 1.98029C128.259 2.11061 121.707 2.31582 115.155 2.58299C96.7159 2.13988 78.2953 1.38729 60.0939 0.00260095C59.6456 -0.0332381 59.254 0.305619 59.2198 0.751978C59.1859 1.2016 59.5221 1.59255 59.9701 1.62839C71.5338 2.50481 83.1857 3.13363 94.8731 3.58324ZM164.203 9.8355C131.56 9.5716 99.4038 10.6631 66.8617 13.2695C53.8114 14.3121 40.7686 15.775 27.788 17.4497C26.1159 17.668 23.4345 17.9905 20.6622 18.3359C59.89 17.5409 98.9995 13.1067 138.187 11.1193C146.857 10.6794 155.53 10.2525 164.203 9.8355Z" fill="#393939"/>
</svg>
